<mxfile host="app.diagrams.net" agent="Mozilla/5.0 (Macintosh; Intel Mac OS X 10_15_7) AppleWebKit/537.36 (KHTML, like Gecko) Chrome/116.0.0.0 Safari/537.36" version="26.1.0">
  <diagram name="Page-1" id="9f46799a-70d6-7492-0946-bef42562c5a5">
    <mxGraphModel dx="2120" dy="1140" grid="1" gridSize="10" guides="1" tooltips="1" connect="1" arrows="1" fold="1" page="1" pageScale="1" pageWidth="827" pageHeight="1169" background="none" math="0" shadow="0">
      <root>
        <mxCell id="0" />
        <mxCell id="1" parent="0" />
        <mxCell id="78961159f06e98e8-17" value="Key" style="swimlane;html=1;fontStyle=1;align=center;verticalAlign=top;childLayout=stackLayout;horizontal=1;startSize=26;horizontalStack=0;resizeParent=1;resizeLast=0;collapsible=1;marginBottom=0;swimlaneFillColor=#ffffff;rounded=0;shadow=0;comic=0;labelBackgroundColor=none;strokeWidth=1;fillColor=none;fontFamily=Verdana;fontSize=12" parent="1" vertex="1">
          <mxGeometry x="219.91" y="297" width="160" height="220" as="geometry" />
        </mxCell>
        <mxCell id="78961159f06e98e8-21" value="+ id: int" style="text;html=1;strokeColor=none;fillColor=none;align=left;verticalAlign=top;spacingLeft=4;spacingRight=4;whiteSpace=wrap;overflow=hidden;rotatable=0;points=[[0,0.5],[1,0.5]];portConstraint=eastwest;" parent="78961159f06e98e8-17" vertex="1">
          <mxGeometry y="26" width="160" height="26" as="geometry" />
        </mxCell>
        <mxCell id="78961159f06e98e8-23" value="+ name: string" style="text;html=1;strokeColor=none;fillColor=none;align=left;verticalAlign=top;spacingLeft=4;spacingRight=4;whiteSpace=wrap;overflow=hidden;rotatable=0;points=[[0,0.5],[1,0.5]];portConstraint=eastwest;" parent="78961159f06e98e8-17" vertex="1">
          <mxGeometry y="52" width="160" height="26" as="geometry" />
        </mxCell>
        <mxCell id="78961159f06e98e8-25" value="+ order: int" style="text;html=1;strokeColor=none;fillColor=none;align=left;verticalAlign=top;spacingLeft=4;spacingRight=4;whiteSpace=wrap;overflow=hidden;rotatable=0;points=[[0,0.5],[1,0.5]];portConstraint=eastwest;" parent="78961159f06e98e8-17" vertex="1">
          <mxGeometry y="78" width="160" height="26" as="geometry" />
        </mxCell>
        <mxCell id="78961159f06e98e8-26" value="+ descri: string" style="text;html=1;strokeColor=none;fillColor=none;align=left;verticalAlign=top;spacingLeft=4;spacingRight=4;whiteSpace=wrap;overflow=hidden;rotatable=0;points=[[0,0.5],[1,0.5]];portConstraint=eastwest;" parent="78961159f06e98e8-17" vertex="1">
          <mxGeometry y="104" width="160" height="26" as="geometry" />
        </mxCell>
        <mxCell id="78961159f06e98e8-24" value="+ clone: bool" style="text;html=1;strokeColor=none;fillColor=none;align=left;verticalAlign=top;spacingLeft=4;spacingRight=4;whiteSpace=wrap;overflow=hidden;rotatable=0;points=[[0,0.5],[1,0.5]];portConstraint=eastwest;" parent="78961159f06e98e8-17" vertex="1">
          <mxGeometry y="130" width="160" height="26" as="geometry" />
        </mxCell>
        <mxCell id="78961159f06e98e8-20" value="+ brand_id: int" style="text;html=1;strokeColor=none;fillColor=none;align=left;verticalAlign=top;spacingLeft=4;spacingRight=4;whiteSpace=wrap;overflow=hidden;rotatable=0;points=[[0,0.5],[1,0.5]];portConstraint=eastwest;" parent="78961159f06e98e8-17" vertex="1">
          <mxGeometry y="156" width="160" height="26" as="geometry" />
        </mxCell>
        <mxCell id="78961159f06e98e8-19" value="" style="line;html=1;strokeWidth=1;fillColor=none;align=left;verticalAlign=middle;spacingTop=-1;spacingLeft=3;spacingRight=3;rotatable=0;labelPosition=right;points=[];portConstraint=eastwest;" parent="78961159f06e98e8-17" vertex="1">
          <mxGeometry y="182" width="160" height="8" as="geometry" />
        </mxCell>
        <mxCell id="78961159f06e98e8-27" value="+ method(type): type" style="text;html=1;strokeColor=none;fillColor=none;align=left;verticalAlign=top;spacingLeft=4;spacingRight=4;whiteSpace=wrap;overflow=hidden;rotatable=0;points=[[0,0.5],[1,0.5]];portConstraint=eastwest;" parent="78961159f06e98e8-17" vertex="1">
          <mxGeometry y="190" width="160" height="26" as="geometry" />
        </mxCell>
        <mxCell id="WOGVCmGMegP1j9NNl-ld-1" style="edgeStyle=orthogonalEdgeStyle;rounded=0;orthogonalLoop=1;jettySize=auto;html=1;entryX=0;entryY=0.5;entryDx=0;entryDy=0;" parent="1" source="78961159f06e98e8-30" target="78961159f06e98e8-96" edge="1">
          <mxGeometry relative="1" as="geometry" />
        </mxCell>
        <mxCell id="78961159f06e98e8-30" value="Unit" style="swimlane;html=1;fontStyle=1;align=center;verticalAlign=top;childLayout=stackLayout;horizontal=1;startSize=26;horizontalStack=0;resizeParent=1;resizeLast=0;collapsible=1;marginBottom=0;swimlaneFillColor=#ffffff;rounded=0;shadow=0;comic=0;labelBackgroundColor=none;strokeWidth=1;fillColor=none;fontFamily=Verdana;fontSize=12" parent="1" vertex="1">
          <mxGeometry x="856.91" y="240" width="160" height="268" as="geometry" />
        </mxCell>
        <mxCell id="78961159f06e98e8-31" value="+ id: int" style="text;html=1;strokeColor=none;fillColor=none;align=left;verticalAlign=top;spacingLeft=4;spacingRight=4;whiteSpace=wrap;overflow=hidden;rotatable=0;points=[[0,0.5],[1,0.5]];portConstraint=eastwest;" parent="78961159f06e98e8-30" vertex="1">
          <mxGeometry y="26" width="160" height="26" as="geometry" />
        </mxCell>
        <mxCell id="78961159f06e98e8-32" value="+ name: string" style="text;html=1;strokeColor=none;fillColor=none;align=left;verticalAlign=top;spacingLeft=4;spacingRight=4;whiteSpace=wrap;overflow=hidden;rotatable=0;points=[[0,0.5],[1,0.5]];portConstraint=eastwest;" parent="78961159f06e98e8-30" vertex="1">
          <mxGeometry y="52" width="160" height="26" as="geometry" />
        </mxCell>
        <mxCell id="78961159f06e98e8-33" value="+ postal_code: type" style="text;html=1;strokeColor=none;fillColor=none;align=left;verticalAlign=top;spacingLeft=4;spacingRight=4;whiteSpace=wrap;overflow=hidden;rotatable=0;points=[[0,0.5],[1,0.5]];portConstraint=eastwest;" parent="78961159f06e98e8-30" vertex="1">
          <mxGeometry y="78" width="160" height="26" as="geometry" />
        </mxCell>
        <mxCell id="78961159f06e98e8-34" value="+ address: string" style="text;html=1;strokeColor=none;fillColor=none;align=left;verticalAlign=top;spacingLeft=4;spacingRight=4;whiteSpace=wrap;overflow=hidden;rotatable=0;points=[[0,0.5],[1,0.5]];portConstraint=eastwest;" parent="78961159f06e98e8-30" vertex="1">
          <mxGeometry y="104" width="160" height="26" as="geometry" />
        </mxCell>
        <mxCell id="78961159f06e98e8-36" value="+ state_id: int" style="text;html=1;strokeColor=none;fillColor=none;align=left;verticalAlign=top;spacingLeft=4;spacingRight=4;whiteSpace=wrap;overflow=hidden;rotatable=0;points=[[0,0.5],[1,0.5]];portConstraint=eastwest;" parent="78961159f06e98e8-30" vertex="1">
          <mxGeometry y="130" width="160" height="26" as="geometry" />
        </mxCell>
        <mxCell id="78961159f06e98e8-37" value="+ descri: string" style="text;html=1;strokeColor=none;fillColor=none;align=left;verticalAlign=top;spacingLeft=4;spacingRight=4;whiteSpace=wrap;overflow=hidden;rotatable=0;points=[[0,0.5],[1,0.5]];portConstraint=eastwest;" parent="78961159f06e98e8-30" vertex="1">
          <mxGeometry y="156" width="160" height="26" as="geometry" />
        </mxCell>
        <mxCell id="78961159f06e98e8-39" value="+ cod: string" style="text;html=1;strokeColor=none;fillColor=none;align=left;verticalAlign=top;spacingLeft=4;spacingRight=4;whiteSpace=wrap;overflow=hidden;rotatable=0;points=[[0,0.5],[1,0.5]];portConstraint=eastwest;" parent="78961159f06e98e8-30" vertex="1">
          <mxGeometry y="182" width="160" height="26" as="geometry" />
        </mxCell>
        <mxCell id="78961159f06e98e8-38" value="" style="line;html=1;strokeWidth=1;fillColor=none;align=left;verticalAlign=middle;spacingTop=-1;spacingLeft=3;spacingRight=3;rotatable=0;labelPosition=right;points=[];portConstraint=eastwest;" parent="78961159f06e98e8-30" vertex="1">
          <mxGeometry y="208" width="160" height="8" as="geometry" />
        </mxCell>
        <mxCell id="78961159f06e98e8-40" value="+ method(type): type" style="text;html=1;strokeColor=none;fillColor=none;align=left;verticalAlign=top;spacingLeft=4;spacingRight=4;whiteSpace=wrap;overflow=hidden;rotatable=0;points=[[0,0.5],[1,0.5]];portConstraint=eastwest;" parent="78961159f06e98e8-30" vertex="1">
          <mxGeometry y="216" width="160" height="26" as="geometry" />
        </mxCell>
        <mxCell id="78961159f06e98e8-42" value="+ method(type): type" style="text;html=1;strokeColor=none;fillColor=none;align=left;verticalAlign=top;spacingLeft=4;spacingRight=4;whiteSpace=wrap;overflow=hidden;rotatable=0;points=[[0,0.5],[1,0.5]];portConstraint=eastwest;" parent="78961159f06e98e8-30" vertex="1">
          <mxGeometry y="242" width="160" height="26" as="geometry" />
        </mxCell>
        <mxCell id="78961159f06e98e8-95" value="State" style="swimlane;html=1;fontStyle=1;align=center;verticalAlign=top;childLayout=stackLayout;horizontal=1;startSize=26;horizontalStack=0;resizeParent=1;resizeLast=0;collapsible=1;marginBottom=0;swimlaneFillColor=#ffffff;rounded=0;shadow=0;comic=0;labelBackgroundColor=none;strokeWidth=1;fillColor=none;fontFamily=Verdana;fontSize=12" parent="1" vertex="1">
          <mxGeometry x="1106.91" y="240" width="160" height="168" as="geometry" />
        </mxCell>
        <mxCell id="78961159f06e98e8-96" value="+ id: int" style="text;html=1;strokeColor=none;fillColor=none;align=left;verticalAlign=top;spacingLeft=4;spacingRight=4;whiteSpace=wrap;overflow=hidden;rotatable=0;points=[[0,0.5],[1,0.5]];portConstraint=eastwest;" parent="78961159f06e98e8-95" vertex="1">
          <mxGeometry y="26" width="160" height="26" as="geometry" />
        </mxCell>
        <mxCell id="78961159f06e98e8-97" value="+ country_id: int" style="text;html=1;strokeColor=none;fillColor=none;align=left;verticalAlign=top;spacingLeft=4;spacingRight=4;whiteSpace=wrap;overflow=hidden;rotatable=0;points=[[0,0.5],[1,0.5]];portConstraint=eastwest;" parent="78961159f06e98e8-95" vertex="1">
          <mxGeometry y="52" width="160" height="26" as="geometry" />
        </mxCell>
        <mxCell id="78961159f06e98e8-98" value="+ cod: string" style="text;html=1;strokeColor=none;fillColor=none;align=left;verticalAlign=top;spacingLeft=4;spacingRight=4;whiteSpace=wrap;overflow=hidden;rotatable=0;points=[[0,0.5],[1,0.5]];portConstraint=eastwest;" parent="78961159f06e98e8-95" vertex="1">
          <mxGeometry y="78" width="160" height="26" as="geometry" />
        </mxCell>
        <mxCell id="78961159f06e98e8-102" value="+ name: type" style="text;html=1;strokeColor=none;fillColor=none;align=left;verticalAlign=top;spacingLeft=4;spacingRight=4;whiteSpace=wrap;overflow=hidden;rotatable=0;points=[[0,0.5],[1,0.5]];portConstraint=eastwest;" parent="78961159f06e98e8-95" vertex="1">
          <mxGeometry y="104" width="160" height="26" as="geometry" />
        </mxCell>
        <mxCell id="78961159f06e98e8-103" value="" style="line;html=1;strokeWidth=1;fillColor=none;align=left;verticalAlign=middle;spacingTop=-1;spacingLeft=3;spacingRight=3;rotatable=0;labelPosition=right;points=[];portConstraint=eastwest;" parent="78961159f06e98e8-95" vertex="1">
          <mxGeometry y="130" width="160" height="8" as="geometry" />
        </mxCell>
        <mxCell id="78961159f06e98e8-104" value="+ method(type): type" style="text;html=1;strokeColor=none;fillColor=none;align=left;verticalAlign=top;spacingLeft=4;spacingRight=4;whiteSpace=wrap;overflow=hidden;rotatable=0;points=[[0,0.5],[1,0.5]];portConstraint=eastwest;" parent="78961159f06e98e8-95" vertex="1">
          <mxGeometry y="138" width="160" height="26" as="geometry" />
        </mxCell>
        <mxCell id="WOGVCmGMegP1j9NNl-ld-2" value="Country" style="swimlane;html=1;fontStyle=1;align=center;verticalAlign=top;childLayout=stackLayout;horizontal=1;startSize=26;horizontalStack=0;resizeParent=1;resizeLast=0;collapsible=1;marginBottom=0;swimlaneFillColor=#ffffff;rounded=0;shadow=0;comic=0;labelBackgroundColor=none;strokeWidth=1;fillColor=none;fontFamily=Verdana;fontSize=12" parent="1" vertex="1">
          <mxGeometry x="1316.91" y="240" width="160" height="138" as="geometry" />
        </mxCell>
        <mxCell id="WOGVCmGMegP1j9NNl-ld-3" value="+ id: int" style="text;html=1;strokeColor=none;fillColor=none;align=left;verticalAlign=top;spacingLeft=4;spacingRight=4;whiteSpace=wrap;overflow=hidden;rotatable=0;points=[[0,0.5],[1,0.5]];portConstraint=eastwest;" parent="WOGVCmGMegP1j9NNl-ld-2" vertex="1">
          <mxGeometry y="26" width="160" height="26" as="geometry" />
        </mxCell>
        <mxCell id="WOGVCmGMegP1j9NNl-ld-5" value="+ cod: string" style="text;html=1;strokeColor=none;fillColor=none;align=left;verticalAlign=top;spacingLeft=4;spacingRight=4;whiteSpace=wrap;overflow=hidden;rotatable=0;points=[[0,0.5],[1,0.5]];portConstraint=eastwest;" parent="WOGVCmGMegP1j9NNl-ld-2" vertex="1">
          <mxGeometry y="52" width="160" height="26" as="geometry" />
        </mxCell>
        <mxCell id="WOGVCmGMegP1j9NNl-ld-6" value="+ name: type" style="text;html=1;strokeColor=none;fillColor=none;align=left;verticalAlign=top;spacingLeft=4;spacingRight=4;whiteSpace=wrap;overflow=hidden;rotatable=0;points=[[0,0.5],[1,0.5]];portConstraint=eastwest;" parent="WOGVCmGMegP1j9NNl-ld-2" vertex="1">
          <mxGeometry y="78" width="160" height="26" as="geometry" />
        </mxCell>
        <mxCell id="WOGVCmGMegP1j9NNl-ld-7" value="" style="line;html=1;strokeWidth=1;fillColor=none;align=left;verticalAlign=middle;spacingTop=-1;spacingLeft=3;spacingRight=3;rotatable=0;labelPosition=right;points=[];portConstraint=eastwest;" parent="WOGVCmGMegP1j9NNl-ld-2" vertex="1">
          <mxGeometry y="104" width="160" height="8" as="geometry" />
        </mxCell>
        <mxCell id="WOGVCmGMegP1j9NNl-ld-8" value="+ method(type): type" style="text;html=1;strokeColor=none;fillColor=none;align=left;verticalAlign=top;spacingLeft=4;spacingRight=4;whiteSpace=wrap;overflow=hidden;rotatable=0;points=[[0,0.5],[1,0.5]];portConstraint=eastwest;" parent="WOGVCmGMegP1j9NNl-ld-2" vertex="1">
          <mxGeometry y="112" width="160" height="26" as="geometry" />
        </mxCell>
        <mxCell id="WOGVCmGMegP1j9NNl-ld-10" style="edgeStyle=orthogonalEdgeStyle;rounded=0;orthogonalLoop=1;jettySize=auto;html=1;exitX=1;exitY=0.5;exitDx=0;exitDy=0;entryX=0;entryY=0.5;entryDx=0;entryDy=0;" parent="1" source="78961159f06e98e8-97" target="WOGVCmGMegP1j9NNl-ld-3" edge="1">
          <mxGeometry relative="1" as="geometry" />
        </mxCell>
        <mxCell id="WOGVCmGMegP1j9NNl-ld-12" value="Building" style="swimlane;html=1;fontStyle=1;align=center;verticalAlign=top;childLayout=stackLayout;horizontal=1;startSize=26;horizontalStack=0;resizeParent=1;resizeLast=0;collapsible=1;marginBottom=0;swimlaneFillColor=#ffffff;rounded=0;shadow=0;comic=0;labelBackgroundColor=none;strokeWidth=1;fillColor=none;fontFamily=Verdana;fontSize=12" parent="1" vertex="1">
          <mxGeometry x="509.91" y="287" width="160" height="190" as="geometry" />
        </mxCell>
        <mxCell id="WOGVCmGMegP1j9NNl-ld-13" value="+ id: int" style="text;html=1;strokeColor=none;fillColor=none;align=left;verticalAlign=top;spacingLeft=4;spacingRight=4;whiteSpace=wrap;overflow=hidden;rotatable=0;points=[[0,0.5],[1,0.5]];portConstraint=eastwest;" parent="WOGVCmGMegP1j9NNl-ld-12" vertex="1">
          <mxGeometry y="26" width="160" height="26" as="geometry" />
        </mxCell>
        <mxCell id="WOGVCmGMegP1j9NNl-ld-14" value="+ name: string" style="text;html=1;strokeColor=none;fillColor=none;align=left;verticalAlign=top;spacingLeft=4;spacingRight=4;whiteSpace=wrap;overflow=hidden;rotatable=0;points=[[0,0.5],[1,0.5]];portConstraint=eastwest;" parent="WOGVCmGMegP1j9NNl-ld-12" vertex="1">
          <mxGeometry y="52" width="160" height="26" as="geometry" />
        </mxCell>
        <mxCell id="WOGVCmGMegP1j9NNl-ld-16" value="+ cod: string" style="text;html=1;strokeColor=none;fillColor=none;align=left;verticalAlign=top;spacingLeft=4;spacingRight=4;whiteSpace=wrap;overflow=hidden;rotatable=0;points=[[0,0.5],[1,0.5]];portConstraint=eastwest;" parent="WOGVCmGMegP1j9NNl-ld-12" vertex="1">
          <mxGeometry y="78" width="160" height="26" as="geometry" />
        </mxCell>
        <mxCell id="WOGVCmGMegP1j9NNl-ld-17" value="+ descri: string" style="text;html=1;strokeColor=none;fillColor=none;align=left;verticalAlign=top;spacingLeft=4;spacingRight=4;whiteSpace=wrap;overflow=hidden;rotatable=0;points=[[0,0.5],[1,0.5]];portConstraint=eastwest;" parent="WOGVCmGMegP1j9NNl-ld-12" vertex="1">
          <mxGeometry y="104" width="160" height="26" as="geometry" />
        </mxCell>
        <mxCell id="WOGVCmGMegP1j9NNl-ld-43" value="+ unit_id: int" style="text;html=1;strokeColor=none;fillColor=none;align=left;verticalAlign=top;spacingLeft=4;spacingRight=4;whiteSpace=wrap;overflow=hidden;rotatable=0;points=[[0,0.5],[1,0.5]];portConstraint=eastwest;" parent="WOGVCmGMegP1j9NNl-ld-12" vertex="1">
          <mxGeometry y="130" width="160" height="26" as="geometry" />
        </mxCell>
        <mxCell id="WOGVCmGMegP1j9NNl-ld-18" value="" style="line;html=1;strokeWidth=1;fillColor=none;align=left;verticalAlign=middle;spacingTop=-1;spacingLeft=3;spacingRight=3;rotatable=0;labelPosition=right;points=[];portConstraint=eastwest;" parent="WOGVCmGMegP1j9NNl-ld-12" vertex="1">
          <mxGeometry y="156" width="160" height="8" as="geometry" />
        </mxCell>
        <mxCell id="WOGVCmGMegP1j9NNl-ld-44" value="+ descri: type" style="text;html=1;strokeColor=none;fillColor=none;align=left;verticalAlign=top;spacingLeft=4;spacingRight=4;whiteSpace=wrap;overflow=hidden;rotatable=0;points=[[0,0.5],[1,0.5]];portConstraint=eastwest;" parent="WOGVCmGMegP1j9NNl-ld-12" vertex="1">
          <mxGeometry y="164" width="160" height="26" as="geometry" />
        </mxCell>
        <mxCell id="WOGVCmGMegP1j9NNl-ld-45" style="edgeStyle=orthogonalEdgeStyle;rounded=0;orthogonalLoop=1;jettySize=auto;html=1;exitX=1;exitY=0.5;exitDx=0;exitDy=0;entryX=0;entryY=0.5;entryDx=0;entryDy=0;" parent="1" source="WOGVCmGMegP1j9NNl-ld-43" target="78961159f06e98e8-31" edge="1">
          <mxGeometry relative="1" as="geometry" />
        </mxCell>
        <mxCell id="WOGVCmGMegP1j9NNl-ld-48" value="Person" style="swimlane;html=1;fontStyle=1;align=center;verticalAlign=top;childLayout=stackLayout;horizontal=1;startSize=26;horizontalStack=0;resizeParent=1;resizeLast=0;collapsible=1;marginBottom=0;swimlaneFillColor=#ffffff;rounded=0;shadow=0;comic=0;labelBackgroundColor=none;strokeWidth=1;fillColor=none;fontFamily=Verdana;fontSize=12" parent="1" vertex="1">
          <mxGeometry x="856.91" y="587" width="160" height="270" as="geometry" />
        </mxCell>
        <mxCell id="WOGVCmGMegP1j9NNl-ld-49" value="+ id: int" style="text;html=1;strokeColor=none;fillColor=none;align=left;verticalAlign=top;spacingLeft=4;spacingRight=4;whiteSpace=wrap;overflow=hidden;rotatable=0;points=[[0,0.5],[1,0.5]];portConstraint=eastwest;" parent="WOGVCmGMegP1j9NNl-ld-48" vertex="1">
          <mxGeometry y="26" width="160" height="26" as="geometry" />
        </mxCell>
        <mxCell id="WOGVCmGMegP1j9NNl-ld-50" value="+ name: string" style="text;html=1;strokeColor=none;fillColor=none;align=left;verticalAlign=top;spacingLeft=4;spacingRight=4;whiteSpace=wrap;overflow=hidden;rotatable=0;points=[[0,0.5],[1,0.5]];portConstraint=eastwest;" parent="WOGVCmGMegP1j9NNl-ld-48" vertex="1">
          <mxGeometry y="52" width="160" height="26" as="geometry" />
        </mxCell>
        <mxCell id="WOGVCmGMegP1j9NNl-ld-51" value="+ postal_code: type" style="text;html=1;strokeColor=none;fillColor=none;align=left;verticalAlign=top;spacingLeft=4;spacingRight=4;whiteSpace=wrap;overflow=hidden;rotatable=0;points=[[0,0.5],[1,0.5]];portConstraint=eastwest;" parent="WOGVCmGMegP1j9NNl-ld-48" vertex="1">
          <mxGeometry y="78" width="160" height="26" as="geometry" />
        </mxCell>
        <mxCell id="WOGVCmGMegP1j9NNl-ld-52" value="+ address: string" style="text;html=1;strokeColor=none;fillColor=none;align=left;verticalAlign=top;spacingLeft=4;spacingRight=4;whiteSpace=wrap;overflow=hidden;rotatable=0;points=[[0,0.5],[1,0.5]];portConstraint=eastwest;" parent="WOGVCmGMegP1j9NNl-ld-48" vertex="1">
          <mxGeometry y="104" width="160" height="26" as="geometry" />
        </mxCell>
        <mxCell id="WOGVCmGMegP1j9NNl-ld-53" value="+ state_id: int" style="text;html=1;strokeColor=none;fillColor=none;align=left;verticalAlign=top;spacingLeft=4;spacingRight=4;whiteSpace=wrap;overflow=hidden;rotatable=0;points=[[0,0.5],[1,0.5]];portConstraint=eastwest;" parent="WOGVCmGMegP1j9NNl-ld-48" vertex="1">
          <mxGeometry y="130" width="160" height="26" as="geometry" />
        </mxCell>
        <mxCell id="WOGVCmGMegP1j9NNl-ld-54" value="+ descri: string" style="text;html=1;strokeColor=none;fillColor=none;align=left;verticalAlign=top;spacingLeft=4;spacingRight=4;whiteSpace=wrap;overflow=hidden;rotatable=0;points=[[0,0.5],[1,0.5]];portConstraint=eastwest;" parent="WOGVCmGMegP1j9NNl-ld-48" vertex="1">
          <mxGeometry y="156" width="160" height="26" as="geometry" />
        </mxCell>
        <mxCell id="WOGVCmGMegP1j9NNl-ld-55" value="+ cod: string" style="text;html=1;strokeColor=none;fillColor=none;align=left;verticalAlign=top;spacingLeft=4;spacingRight=4;whiteSpace=wrap;overflow=hidden;rotatable=0;points=[[0,0.5],[1,0.5]];portConstraint=eastwest;" parent="WOGVCmGMegP1j9NNl-ld-48" vertex="1">
          <mxGeometry y="182" width="160" height="26" as="geometry" />
        </mxCell>
        <mxCell id="WOGVCmGMegP1j9NNl-ld-57" value="+ person_custom_id: string" style="text;html=1;strokeColor=none;fillColor=none;align=left;verticalAlign=top;spacingLeft=4;spacingRight=4;whiteSpace=wrap;overflow=hidden;rotatable=0;points=[[0,0.5],[1,0.5]];portConstraint=eastwest;" parent="WOGVCmGMegP1j9NNl-ld-48" vertex="1">
          <mxGeometry y="208" width="160" height="26" as="geometry" />
        </mxCell>
        <mxCell id="WOGVCmGMegP1j9NNl-ld-56" value="" style="line;html=1;strokeWidth=1;fillColor=none;align=left;verticalAlign=middle;spacingTop=-1;spacingLeft=3;spacingRight=3;rotatable=0;labelPosition=right;points=[];portConstraint=eastwest;" parent="WOGVCmGMegP1j9NNl-ld-48" vertex="1">
          <mxGeometry y="234" width="160" height="8" as="geometry" />
        </mxCell>
        <mxCell id="WOGVCmGMegP1j9NNl-ld-58" value="+ method(type): type" style="text;html=1;strokeColor=none;fillColor=none;align=left;verticalAlign=top;spacingLeft=4;spacingRight=4;whiteSpace=wrap;overflow=hidden;rotatable=0;points=[[0,0.5],[1,0.5]];portConstraint=eastwest;" parent="WOGVCmGMegP1j9NNl-ld-48" vertex="1">
          <mxGeometry y="242" width="160" height="26" as="geometry" />
        </mxCell>
        <mxCell id="WOGVCmGMegP1j9NNl-ld-60" style="edgeStyle=orthogonalEdgeStyle;rounded=0;orthogonalLoop=1;jettySize=auto;html=1;exitX=1;exitY=0.5;exitDx=0;exitDy=0;entryX=0;entryY=0.5;entryDx=0;entryDy=0;" parent="1" source="WOGVCmGMegP1j9NNl-ld-53" target="78961159f06e98e8-96" edge="1">
          <mxGeometry relative="1" as="geometry" />
        </mxCell>
        <mxCell id="WOGVCmGMegP1j9NNl-ld-61" value="Key_Moves" style="swimlane;html=1;fontStyle=1;align=center;verticalAlign=top;childLayout=stackLayout;horizontal=1;startSize=26;horizontalStack=0;resizeParent=1;resizeLast=0;collapsible=1;marginBottom=0;swimlaneFillColor=#ffffff;rounded=0;shadow=0;comic=0;labelBackgroundColor=none;strokeWidth=1;fillColor=none;fontFamily=Verdana;fontSize=12" parent="1" vertex="1">
          <mxGeometry x="219.91" y="587" width="160" height="250" as="geometry" />
        </mxCell>
        <mxCell id="WOGVCmGMegP1j9NNl-ld-62" value="+ id: int" style="text;html=1;strokeColor=none;fillColor=none;align=left;verticalAlign=top;spacingLeft=4;spacingRight=4;whiteSpace=wrap;overflow=hidden;rotatable=0;points=[[0,0.5],[1,0.5]];portConstraint=eastwest;" parent="WOGVCmGMegP1j9NNl-ld-61" vertex="1">
          <mxGeometry y="26" width="160" height="26" as="geometry" />
        </mxCell>
        <mxCell id="WOGVCmGMegP1j9NNl-ld-64" value="+ action: list" style="text;html=1;strokeColor=none;fillColor=none;align=left;verticalAlign=top;spacingLeft=4;spacingRight=4;whiteSpace=wrap;overflow=hidden;rotatable=0;points=[[0,0.5],[1,0.5]];portConstraint=eastwest;" parent="WOGVCmGMegP1j9NNl-ld-61" vertex="1">
          <mxGeometry y="52" width="160" height="26" as="geometry" />
        </mxCell>
        <mxCell id="WOGVCmGMegP1j9NNl-ld-65" value="+ key_id: string" style="text;html=1;strokeColor=none;fillColor=none;align=left;verticalAlign=top;spacingLeft=4;spacingRight=4;whiteSpace=wrap;overflow=hidden;rotatable=0;points=[[0,0.5],[1,0.5]];portConstraint=eastwest;" parent="WOGVCmGMegP1j9NNl-ld-61" vertex="1">
          <mxGeometry y="78" width="160" height="26" as="geometry" />
        </mxCell>
        <mxCell id="WOGVCmGMegP1j9NNl-ld-66" value="+ date_time: int" style="text;html=1;strokeColor=none;fillColor=none;align=left;verticalAlign=top;spacingLeft=4;spacingRight=4;whiteSpace=wrap;overflow=hidden;rotatable=0;points=[[0,0.5],[1,0.5]];portConstraint=eastwest;" parent="WOGVCmGMegP1j9NNl-ld-61" vertex="1">
          <mxGeometry y="104" width="160" height="26" as="geometry" />
        </mxCell>
        <mxCell id="WOGVCmGMegP1j9NNl-ld-67" value="+ descri: string" style="text;html=1;strokeColor=none;fillColor=none;align=left;verticalAlign=top;spacingLeft=4;spacingRight=4;whiteSpace=wrap;overflow=hidden;rotatable=0;points=[[0,0.5],[1,0.5]];portConstraint=eastwest;" parent="WOGVCmGMegP1j9NNl-ld-61" vertex="1">
          <mxGeometry y="130" width="160" height="26" as="geometry" />
        </mxCell>
        <mxCell id="WOGVCmGMegP1j9NNl-ld-68" value="+ person_id: int" style="text;html=1;strokeColor=none;fillColor=none;align=left;verticalAlign=top;spacingLeft=4;spacingRight=4;whiteSpace=wrap;overflow=hidden;rotatable=0;points=[[0,0.5],[1,0.5]];portConstraint=eastwest;" parent="WOGVCmGMegP1j9NNl-ld-61" vertex="1">
          <mxGeometry y="156" width="160" height="26" as="geometry" />
        </mxCell>
        <mxCell id="WOGVCmGMegP1j9NNl-ld-69" value="+ docs: string" style="text;html=1;strokeColor=none;fillColor=none;align=left;verticalAlign=top;spacingLeft=4;spacingRight=4;whiteSpace=wrap;overflow=hidden;rotatable=0;points=[[0,0.5],[1,0.5]];portConstraint=eastwest;" parent="WOGVCmGMegP1j9NNl-ld-61" vertex="1">
          <mxGeometry y="182" width="160" height="26" as="geometry" />
        </mxCell>
        <mxCell id="WOGVCmGMegP1j9NNl-ld-70" value="" style="line;html=1;strokeWidth=1;fillColor=none;align=left;verticalAlign=middle;spacingTop=-1;spacingLeft=3;spacingRight=3;rotatable=0;labelPosition=right;points=[];portConstraint=eastwest;" parent="WOGVCmGMegP1j9NNl-ld-61" vertex="1">
          <mxGeometry y="208" width="160" height="8" as="geometry" />
        </mxCell>
        <mxCell id="WOGVCmGMegP1j9NNl-ld-71" value="+ method(type): type" style="text;html=1;strokeColor=none;fillColor=none;align=left;verticalAlign=top;spacingLeft=4;spacingRight=4;whiteSpace=wrap;overflow=hidden;rotatable=0;points=[[0,0.5],[1,0.5]];portConstraint=eastwest;" parent="WOGVCmGMegP1j9NNl-ld-61" vertex="1">
          <mxGeometry y="216" width="160" height="26" as="geometry" />
        </mxCell>
        <mxCell id="WOGVCmGMegP1j9NNl-ld-76" value="Brand" style="swimlane;html=1;fontStyle=1;align=center;verticalAlign=top;childLayout=stackLayout;horizontal=1;startSize=26;horizontalStack=0;resizeParent=1;resizeLast=0;collapsible=1;marginBottom=0;swimlaneFillColor=#ffffff;rounded=0;shadow=0;comic=0;labelBackgroundColor=none;strokeWidth=1;fillColor=none;fontFamily=Verdana;fontSize=12" parent="1" vertex="1">
          <mxGeometry x="509.91" y="517" width="160" height="164" as="geometry" />
        </mxCell>
        <mxCell id="WOGVCmGMegP1j9NNl-ld-77" value="+ id: int" style="text;html=1;strokeColor=none;fillColor=none;align=left;verticalAlign=top;spacingLeft=4;spacingRight=4;whiteSpace=wrap;overflow=hidden;rotatable=0;points=[[0,0.5],[1,0.5]];portConstraint=eastwest;" parent="WOGVCmGMegP1j9NNl-ld-76" vertex="1">
          <mxGeometry y="26" width="160" height="26" as="geometry" />
        </mxCell>
        <mxCell id="WOGVCmGMegP1j9NNl-ld-78" value="+ name: string" style="text;html=1;strokeColor=none;fillColor=none;align=left;verticalAlign=top;spacingLeft=4;spacingRight=4;whiteSpace=wrap;overflow=hidden;rotatable=0;points=[[0,0.5],[1,0.5]];portConstraint=eastwest;" parent="WOGVCmGMegP1j9NNl-ld-76" vertex="1">
          <mxGeometry y="52" width="160" height="26" as="geometry" />
        </mxCell>
        <mxCell id="WOGVCmGMegP1j9NNl-ld-80" value="+ descri: string" style="text;html=1;strokeColor=none;fillColor=none;align=left;verticalAlign=top;spacingLeft=4;spacingRight=4;whiteSpace=wrap;overflow=hidden;rotatable=0;points=[[0,0.5],[1,0.5]];portConstraint=eastwest;" parent="WOGVCmGMegP1j9NNl-ld-76" vertex="1">
          <mxGeometry y="78" width="160" height="26" as="geometry" />
        </mxCell>
        <mxCell id="WOGVCmGMegP1j9NNl-ld-81" value="+ tier: int" style="text;html=1;strokeColor=none;fillColor=none;align=left;verticalAlign=top;spacingLeft=4;spacingRight=4;whiteSpace=wrap;overflow=hidden;rotatable=0;points=[[0,0.5],[1,0.5]];portConstraint=eastwest;" parent="WOGVCmGMegP1j9NNl-ld-76" vertex="1">
          <mxGeometry y="104" width="160" height="26" as="geometry" />
        </mxCell>
        <mxCell id="WOGVCmGMegP1j9NNl-ld-83" value="" style="line;html=1;strokeWidth=1;fillColor=none;align=left;verticalAlign=middle;spacingTop=-1;spacingLeft=3;spacingRight=3;rotatable=0;labelPosition=right;points=[];portConstraint=eastwest;" parent="WOGVCmGMegP1j9NNl-ld-76" vertex="1">
          <mxGeometry y="130" width="160" height="8" as="geometry" />
        </mxCell>
        <mxCell id="WOGVCmGMegP1j9NNl-ld-84" value="+ method(type): type" style="text;html=1;strokeColor=none;fillColor=none;align=left;verticalAlign=top;spacingLeft=4;spacingRight=4;whiteSpace=wrap;overflow=hidden;rotatable=0;points=[[0,0.5],[1,0.5]];portConstraint=eastwest;" parent="WOGVCmGMegP1j9NNl-ld-76" vertex="1">
          <mxGeometry y="138" width="160" height="26" as="geometry" />
        </mxCell>
        <mxCell id="WOGVCmGMegP1j9NNl-ld-85" style="edgeStyle=orthogonalEdgeStyle;rounded=0;orthogonalLoop=1;jettySize=auto;html=1;exitX=1;exitY=0.5;exitDx=0;exitDy=0;entryX=0;entryY=0.5;entryDx=0;entryDy=0;" parent="1" source="78961159f06e98e8-20" target="WOGVCmGMegP1j9NNl-ld-77" edge="1">
          <mxGeometry relative="1" as="geometry" />
        </mxCell>
        <mxCell id="WOGVCmGMegP1j9NNl-ld-86" style="edgeStyle=orthogonalEdgeStyle;rounded=0;orthogonalLoop=1;jettySize=auto;html=1;exitX=0;exitY=0.5;exitDx=0;exitDy=0;entryX=0;entryY=0.5;entryDx=0;entryDy=0;" parent="1" source="WOGVCmGMegP1j9NNl-ld-62" target="78961159f06e98e8-21" edge="1">
          <mxGeometry relative="1" as="geometry">
            <Array as="points">
              <mxPoint x="109.91" y="626" />
              <mxPoint x="109.91" y="336" />
            </Array>
          </mxGeometry>
        </mxCell>
        <mxCell id="WOGVCmGMegP1j9NNl-ld-87" style="edgeStyle=orthogonalEdgeStyle;rounded=0;orthogonalLoop=1;jettySize=auto;html=1;exitX=1;exitY=0.5;exitDx=0;exitDy=0;entryX=0;entryY=0.5;entryDx=0;entryDy=0;" parent="1" source="WOGVCmGMegP1j9NNl-ld-68" target="WOGVCmGMegP1j9NNl-ld-49" edge="1">
          <mxGeometry relative="1" as="geometry">
            <Array as="points">
              <mxPoint x="799.91" y="756" />
              <mxPoint x="799.91" y="626" />
            </Array>
          </mxGeometry>
        </mxCell>
        <mxCell id="WOGVCmGMegP1j9NNl-ld-90" value="Card" style="swimlane;html=1;fontStyle=1;align=center;verticalAlign=top;childLayout=stackLayout;horizontal=1;startSize=26;horizontalStack=0;resizeParent=1;resizeLast=0;collapsible=1;marginBottom=0;swimlaneFillColor=#ffffff;rounded=0;shadow=0;comic=0;labelBackgroundColor=none;strokeWidth=1;fillColor=none;fontFamily=Verdana;fontSize=12" parent="1" vertex="1">
          <mxGeometry x="1209.91" y="697" width="160" height="164" as="geometry" />
        </mxCell>
        <mxCell id="WOGVCmGMegP1j9NNl-ld-91" value="+ id: int" style="text;html=1;strokeColor=none;fillColor=none;align=left;verticalAlign=top;spacingLeft=4;spacingRight=4;whiteSpace=wrap;overflow=hidden;rotatable=0;points=[[0,0.5],[1,0.5]];portConstraint=eastwest;" parent="WOGVCmGMegP1j9NNl-ld-90" vertex="1">
          <mxGeometry y="26" width="160" height="26" as="geometry" />
        </mxCell>
        <mxCell id="WOGVCmGMegP1j9NNl-ld-97" value="+ cod_card: string" style="text;html=1;strokeColor=none;fillColor=none;align=left;verticalAlign=top;spacingLeft=4;spacingRight=4;whiteSpace=wrap;overflow=hidden;rotatable=0;points=[[0,0.5],[1,0.5]];portConstraint=eastwest;" parent="WOGVCmGMegP1j9NNl-ld-90" vertex="1">
          <mxGeometry y="52" width="160" height="26" as="geometry" />
        </mxCell>
        <mxCell id="WOGVCmGMegP1j9NNl-ld-92" value="+ person_id: id" style="text;html=1;strokeColor=none;fillColor=none;align=left;verticalAlign=top;spacingLeft=4;spacingRight=4;whiteSpace=wrap;overflow=hidden;rotatable=0;points=[[0,0.5],[1,0.5]];portConstraint=eastwest;" parent="WOGVCmGMegP1j9NNl-ld-90" vertex="1">
          <mxGeometry y="78" width="160" height="26" as="geometry" />
        </mxCell>
        <mxCell id="WOGVCmGMegP1j9NNl-ld-93" value="+ brand: string" style="text;html=1;strokeColor=none;fillColor=none;align=left;verticalAlign=top;spacingLeft=4;spacingRight=4;whiteSpace=wrap;overflow=hidden;rotatable=0;points=[[0,0.5],[1,0.5]];portConstraint=eastwest;" parent="WOGVCmGMegP1j9NNl-ld-90" vertex="1">
          <mxGeometry y="104" width="160" height="26" as="geometry" />
        </mxCell>
        <mxCell id="WOGVCmGMegP1j9NNl-ld-95" value="" style="line;html=1;strokeWidth=1;fillColor=none;align=left;verticalAlign=middle;spacingTop=-1;spacingLeft=3;spacingRight=3;rotatable=0;labelPosition=right;points=[];portConstraint=eastwest;" parent="WOGVCmGMegP1j9NNl-ld-90" vertex="1">
          <mxGeometry y="130" width="160" height="8" as="geometry" />
        </mxCell>
        <mxCell id="WOGVCmGMegP1j9NNl-ld-96" value="+ method(type): type" style="text;html=1;strokeColor=none;fillColor=none;align=left;verticalAlign=top;spacingLeft=4;spacingRight=4;whiteSpace=wrap;overflow=hidden;rotatable=0;points=[[0,0.5],[1,0.5]];portConstraint=eastwest;" parent="WOGVCmGMegP1j9NNl-ld-90" vertex="1">
          <mxGeometry y="138" width="160" height="26" as="geometry" />
        </mxCell>
        <mxCell id="WOGVCmGMegP1j9NNl-ld-99" style="edgeStyle=orthogonalEdgeStyle;rounded=0;orthogonalLoop=1;jettySize=auto;html=1;exitX=1;exitY=0.5;exitDx=0;exitDy=0;entryX=0;entryY=0.5;entryDx=0;entryDy=0;" parent="1" source="WOGVCmGMegP1j9NNl-ld-49" target="WOGVCmGMegP1j9NNl-ld-92" edge="1">
          <mxGeometry relative="1" as="geometry" />
        </mxCell>
        <mxCell id="S-iKiigjYxHBqxAakLbF-1" value="&lt;h1 style=&quot;margin-top: 0px;&quot;&gt;Clavikey&lt;/h1&gt;&lt;p&gt;A simple key storage and control system&lt;br&gt;&lt;/p&gt;" style="text;html=1;whiteSpace=wrap;overflow=hidden;rounded=0;" vertex="1" parent="1">
          <mxGeometry x="223" y="100" width="180" height="120" as="geometry" />
        </mxCell>
        <mxCell id="S-iKiigjYxHBqxAakLbF-2" value="" style="shape=image;verticalLabelPosition=bottom;labelBackgroundColor=default;verticalAlign=top;aspect=fixed;imageAspect=0;image=data:image/png,iVBORw0KGgoAAAANSUhEUgAAAkcAAAJHCAYAAACaQ/L3AAB2MUlEQVR4Xuy9B3gc133uLYlEIwAC2EXfvsBiF22B7YtKguhbQZAAi6wusYGdlCxL18nndt3kOLblIrFTxeU6yY19kzg3sZPc69zYjhU7cdziIsuqrGARZcsScb7nnJnZnT0zu1iAAJve3/O8z8zOFuwCFPDT//zPObfcAgAAAAAAAAAAAAAAAAAAAAAAAAAAAAAAAAAAAAAAAAAAAAAAAAAAAAAAAAAAAAAAAAAAAAAAAAAAAAAAAAAAAAAAAAAAAAAAAAAAAAAAAAAAAAAAAAAAAAAAAAAAAAAAAAAAAAAAAAAAAAAAAAAAAAAAAAAAAAAAAAAAAAAAAAAAAAAAAAAAAAAAAAAAAAAAAAAAAAAAAAAAAAAAAAAAAAAAAAAAAAAAAAAAAAAAAAAAAAAAAAAAAAAAAAAAAAAAAAAAAAAAAAAAAAAAAAAAAAAAAAAAAAAAAAAAAAAAAAAAAAAAAAAAAAAAAAAAAAAAAAAAAAAAAAAAAAAAAAAAAAAAAAAAAAAAAAAAAAAAAAAAAAAAAAAAAAAAAAAAAAAAAAAAAAAAAAAAAAAAAAAAAAAAAAAAAAAAAAAAAAAAAAAAAAAAAAAAAAAAAAAAAAAAAAAAAAAAAAAAAAAAAAAAAAAAAAAAAAAAAAAAAAAAAAAAAAAAAAAAAAAAAAAAAAAAAAAAAAAAAAAAAAAAAAAAAAAAAAAAAAAAAAAAAAAAAAAAAAAAAAAAAAAAAAAAAAAAAAAAAAAAAAAAAAAAAAAAAAAAAAAAAAAAAAAAAAAAAAAAAAAAAAAAAAAAAAAAAAAAAAAAAAAAAAAAAAAAAAAAAAAAAAAAAAAAAAAAAAAAAAAAAAAAAAAAAAAAAAAAAAAAAAAAAAAAAAAAAAAAAAAAAAAAAAAAAAAAAAAAAAAAAAAAAAAAAAAAAAAAAAAAAAAAAAAAAAAAAAAAAAAAAAAAAAAAAAAAAAAAAAAAAAAAAAAAAAAAAAAAAAAAAAAAAAAAAAAAAAAAAAAAAAAAAAAAAAAAAAAAAAAAAAAAAAAAAAAAAAAAAAAAAAAAAAAAAAAAAAAAAAAAAAAAAAAAAAAAAAAAAAAAAAAAAAAAAAAAAAAAAAAAAAAAAAAAAAAAAAAAAAAAAAAAAAAAAAAAAAAAAAAAAAAAAAAAAAAAAAAAAAAAAAAAAAAAAAAAAAAAAAAAAAAAAAAAAAAAAAAAAAAAAAAAAAAAAAAAAAAAAAAAAAAAAAAAAAAAAAAAAAAAAAAAAAAAAAAAAAAAAAAAAAAAAAAAAAAAAAAAAAAAAAAAAAAAAAAAAAAAAAAAAAAAAAAAAAAAAAAAAAAAAAAAAAAAAAAAAAAAAAAAAAAAAAAAAAAAAAAAAAAAAAAAAAAAAAAAAAAAAAAAAAAAAAAAAAAAAAAAAAAAAAAAAAAAAAAAAAAAAAAAAAAAAAAAAAAAAAAAAAAAAAAAAAAAAAAAAAAAAAAAAAAAAAAAAAAAAAAAAAAAAAAAAAAAAAAAAAAAAAAAAAAAAAAAAAAAAAAAAAAAAAAAAAAAAAAAAAAAAAAAAAAAAAAAAAAAAAAAAAAAAAAAAAAAAAAAAAAAAAAAAAAAAAAAAAAAAAAAAAAAAAAAAAAAAAAAAAAAAAAAAAAAAAAAAAAAAAAAAAAAAAAAAAAAAAAAAAAAAAAAAAAAAAAAAAAAAAAAAAAAAAAAAAAAAAAAAAAAAAAAAAAAAAAAAAAAAAAAAAAAAAAAAAAAAAAAAAAAAAAAAAAAAAAA3HLLymZtztSoJX/7qDVvasSau23EmrdtpC5vapQlf2q0PmO2paQumRE+1kS2slgKaLaNWJalZNRKU7B1VLh/y7C5YNOQqeD+QWP+PQOGvLv79bl3rNLnres15IcDhryuNmOus9Gcb7NZ841ma16NwZJXpTPnVdSa88przHmaaiFl1ea80ioplrySNFmeTD5/X6Ysr7TkLq+05IhZKh5ziyvNS3MKivlvOwAAAACuR1Y0anR//Uhg3Zljo/vOHA3vOXUksvvUkcjeU0cj+04dje47dTS279Qxmvi+U8dZ9p46Ft8rnu87SXMsvvfkMXbcd/JYTJaoPPtPHI3sk2X/iaNhmgdPHgu9++TR0MMnj4WTOS7kxLHQw68dHX341aMj737p8PBDLxwafPDXBwf2/eLJwb0/+tzIu7/7yfgjj+8e3bVh9dCevqHIQx19sQc9PeH9bZ2h/a3B0L7mQGhfoz+01+EP7W3wje6x+Ub31HtDNHvpsc4X3lvnDdHsE7PXKmSf1RveV+cJ77N6hGt13vBeq5g6b3gPvV3njdDssXrCu63u8C6LK7TT7AptN7tCU/Rocg3v1rcPThZq9Tr+ew8AAACA64wVTdqCv36Pf8uJQ4P/cfLIyOsnj4QvnjgSuXDySOTiCXbObl88cVTMscgFlqPiMXPo41lOsoSlXJCdXzx1LPz6qePhS2LekHL6KZrI72jOPE0T/d2Zp2NvnHk28sapZyOXTj4TvTj9TPx3rxzZcPkjU6vP+3pHz9t94Tca/bE3HP7oG3Z/5JLdH3nd7o++3uCPXqSx+SIX6mn8NFEpF4VExGP0Yp08voiUC9x5Ml6W8zRWT/icxR2atrjDZ63u8LTFPXLB5Br6Sbm5fVNOfnEp/zMAAAAAwHXCiibtLX/1nkDw9MHBvz1xaPCt1w6FyMnDYXLySJicSCRETtIcDZETR4VjasKpOZY+p46FVHOa5riUMDlD8xRNRMjTUXL2qRg5+1ScnH06Rs48EyWnnh0jZ5+Jk1NHQuRL742TgcgYMfmipM4dIfWeKKnz0kRIHb2mmphK5Nf5x8tDX5cL/VqyWMXQ91HPzkPE6Br5B625fSCnoDiH/1kAAAAA4Drg43c0604eHPrEqYMDp08eGiWnDkfI6cMRcuqIIEg0p47KE0mfY0JOzyFn5Dku5CwLlaEomX5KOFIhmn46Tqbp8ZkoOftsjJx9dozd/40Pxcia8dWkLhBnItLgjZMGX5zYfDFi80uJL2DkrysL/XqqEd5LvS9KTK7R1/Xtw58rLDfY+J8FAAAAAK4xK5srCv7m0c4HTh0a+tnJwyPk1OGwIEaHIwkxOnmEnlNZUpGhOYSXonSCJIhRUo6kTD9NQ8UoQs4+EyHTz0bJxWfC5F8+GSN3v2ucNHSMkXpPjElRg29MPNLbUuKkwZ85SgmaLbwEpUuc2LyxmXpvdMbsDs/oXSO/0ZjbpzC8BgAAAFxHrGyuuPVvHu3qOnVo+G9OHBr5Ax1KO32IilGyYiQPrSSlVpDmkgg5nUhYyLFk+OpRQpCeipCzTwuZpnkmTKafDTM5uvhsiPz0c6Nk/wNx0tQzRqzeqCAi/rE01R3pGi8480m2FSNZvLGZOm/kstUbnTF5wjO69pF/0JjaB3LyMbwGAAAAXBc8dker+eTBkc+cODhw5uShEDl1KMqqRkKvEe0xUgqS+jBbpnDVo4Qc0YqRJEdphtaoGDE5EqtGz1ApoomSC8+GyQsHQuQjO6PE2xcjVg+VDzp0FSf1Mnlp4HLlcqQiPXNIvS9O+5VmrL4oMbpGX9c5hz5bqNVjeA0AAAC41qxoKi/+q0c6dp44MPTLEwdHyClaMTqUnRjNTY5SBSlRNUqpHqnJkWw4jQ2p0apRiInR+Wei7D0ceneUrBimssGqMsTmGxPliK8Y8eGFZy5REx4h/HXpPuEYFR8XTzze4g4TY/vQC1pz246c/GIN/zMCAAAAwFWip1F729cf7ug/cWD4H04cGHn75MEwOXUoLA6nZRYjNrQmj0KEUkMFSH6uCD+kJskRqxpJckSH1KgYhVkj9vTxCPnL90dINCZIBu0nEqRoLAsxmqMgsUZqsbH7CiMJknAu3LZ4RomhffDbWrNzJKegOJf/WQEAAADgKvDhjU0Nrz4x8OSJJwemTx6kw2nyPqM5ytEsgqSQIS6qYpSYsSbNUguLPUdRcuHpMPk/Hw+TO9bFiD0YI/Wsz4iKTLo+o0xRkSE+WYiRVAlSqyDx1wRBkiRJWGbA2D78hr5t8KDW3ObA6tkAAADAVabbUV769YeDj5w8MPjiqcRwmrxqpJQjhQzxyVKEFOHF6Fg0WTU6TitEVI6khuwYufh0hPzo0yGy++4Iaemi6wZFhen6WYuRivwoRIg75ypHvAipRU2OpOupciTctrhDRN8+9LK+bXB/kVZfwf/MAAAAALBIBO3lS//swc6xEweHv3/q8CgTo9MH5dP2lWK0cHLEzVTjq0bHqRgJcqQUoyi5+HSUvPCFEPnwVJh4V8ZInYeuZUQFQ5IbQYBSG6/5qAhRpiQkh/YJJXuF5h9JjKT+I+lahK59NGNoH/qe1tw2lpNfXMD/7AAAAACwCDw60dL4688NP3vy4NAbtFpEp+3TJEUoVY4UEjRLlEIklyJZVCtGQthQGgvtOQqzVbHPPx1l1a3DD4ZJ73CMWOl6RdIijzIxSh8V8ckmXPVo3oLkVbmWIkl0Be0wMbqGf69vG3xaa3I6c/KLbuV/fgAAAABYQFqtlcUHt3c+/MLnh148dShETtNp+4leI0mK5i9Hp1XlSEWMjvJipCZHghjR0Jlq546FydffFyaRWJxY/FRQpOG0bMToCuRIVZB4yZlvRDmi1S/WNxUhFvco0bcNntA7Bx4p0uqr+J8hAAAAABYIq6F6yZbJvvDffTD2nVefDM2coduDHIqq9BkttBypSJIoRMIxqiJG4nAaFaOnI+TCU2Hy/x4LkTs3xEh9ME7q6HpGCTGikeSHF6IFECOaxZYjUZBo/xTde83sZrPXfqA1tU1geA0AAABYJHq7As23b5x89ouPjL1+4kCUnDksLPYozVDjZ6rx4jNrFDKkFrUhNV6MkhUjen7xqTD5yeMh8uD9UdJMV8D2CMNpghwJ8iP0FyVvL4gQybMQw2pSmATJr6UKEq0gibPX/qBzDnxJY3K6cvKLMbwGAAAALCTaakO5q2/8fSvjd7509OHxmRMHYuQs21hWlCJ6nGsDtkoyV45EOUrZRy0pRgk5EitG9Hj+eJi8+MQo+diuKPGtoluDjBEbDV3okYkLL0GLL0cLUjmSBEmqFskEicoRvWZxhYjOOXiq1jnwx4VafQ3/MwUAAADAPNFUG3JdA5MbXav3/KArvuntY4+snTlxIELOikJE5UiSm/lKEQ0To7RylKwYpYjRsSg5nTJDTWzApgs+PhUlpw6OkmMPh8jKUJxY6VR91oDNT9mXny+wFMmTIkgqwpNNUqRIGkYTk6geSWGz14iubehHGpNzQ05+cSH/swUAAADAPKh3r3D5Vu/4C2dk5++74ptnDj86SU4cCJNpusEsk6NIBjkKKSQoXeYlR1LF6JhsZhprwI6Q6aMh8tfvD5GxsRipDwjT6WdvwFaRmoWKTIzmJUcKMeLkSBIkNqwm3Gf1RIihfeSt2taBvygzOn2FWtNtS/OK+B8xAAAAALKlpEJf1dgz/iF3ZNtr7vDUTPfYNnLgkfXk1QMhMn04RE4fEdY3Wgg5SghSlmJEK0asakTF6BitGgliRCXpwvEQ+ZfHQuS+jXHi6BxjIiH0FfFVo6skRjRXOqyWkCH+qBbpPmH2ms45cKa2tf+DGpNLn1NQwv+YAQAAAJANy8t1BU094/d6o1P/6YtOzfijU6QrvoN8/j0byMtUjpjM0L4jKkeCIKXKERUjSY6kc/k1ZZRiJJOjhCDJhtMSM9WoFIUSDdg/+0yYPHR/jLSuGCN1dD0jVjEaI7ZAnNhoFUmUIWGxR3oUohCahcyVDqspKkaZ5EgeOrw2QvTOwZ9qTM67cvKLsbcIAAAAMFeKtLW32DpiXZ7I1r/1R7e/FYhOkUBsO+mM7ySPP7yRvCSTI0GMktWj1FypHPELP0ZTktwqROgzunA8Ql5+IkQ+sTtK/AOriVUmQExQqBgFpBWwk1KkFrnYNPjHWITb9ChFRYLShZOjOQuSQo7Sp44uCOmLJORImL028natc/B/aUzOrpyC4iX8zxwAAAAAGdA1dZraRu9/3B3afDYQmSLB2HYSjApy9OmHNpAXnwyTaVo1WmA5Uk7nV1aNElLEQrcMEcToPJWkQyHy1CMRsjIcJ5bAGKsY8WIkyE6cNARk4eWIVZiSEpSUIz4qEpQuKXI0x+rRbL1GvBxJgiS7ZnaHib5t+JzOOfBYoVZv5n/mAAAAAEhDkbZ2eX1HZJc7/MCvApGtJBidIh2xKdIR3U464rvIJx+8nbzwRGQWOeJFiL+dJnOVIypGx8NsD7XzR0PkGx8Mk7HxMWINcg3YiYqRihiJoTLUIAmReM5u0+OscpSFKM1HjuYoRSlyJCZ5mw6vhYjeOfRLrbFtc05+cSn/swcAAAAAR5G29larPzTgHLnnH73hTW8Ho9sEMWIR5Oix/e8iz38hSqaPRMnpI9E0csQL0XzkiBcjqSE7dThtmjVgR8j3/iRC7r1jjNi74kwIEsNjWYiRJEIZI6sg8Zm7HEmb0aYZXpunFKWXoxiTIysVpPbRy/rWwW9qTc5VOfnFOfy/AQAAAADIqG3ssLYO3v2Ea+S+c/7IFtIRo3IkZTsJxneRj+67g/z6C7EUOTopydFRMWkFSUWIZpUjWi3iqkZSn9HxKLl4PEJ+/tkIec/mOHGuWM0asO3icFoDlaK0YqQiQNlGRY4SMpYpKoKkEKNFkSPpvgixesLE0DZ0UecceFxraqvPyUd/NgAAAKBKkba2pD4Q2eceue/5QHgzJ0aiHMV2kQ/vvYP88gvxeciRigxxUVSMZJUjvmJExej8UxHy0oEI+eSeGAkOjLGtOewJERLFiIUXoyuUIykJQVL2LSnEKEWQZqkcpQiSUn4yRS5GSTmSmrOF12P9R86hF/StgzsLNXoN/28BAAAAeMdTqKm9zeoLj7pG7vu2P7zp7Y7oVtIZ28Yil6NAdBf54O47yS8+T+UoNkc5ykKQ2POVYpRc30hYz+j08QiZPh5j25c882iUDITHSH2AVoyixJ4QoujiipE8KoKkkCLV6lGGCtICyJH8Gjv3CK9Hb5vaR2d0rYP/V2NyjubkF+fy/yYAAACAdzQ1jZ2O1qF7jnhHH7igLkaCHPmju8j7dt1Jfv65MZkcRRdcjuRJDqlROaIVIzpDLUqmj0XI334oSibWjBF7MEbsfrkYCRFux4ldzKKIEY1CjvjbnDCpyFF6QVIKUKaoSVGKLFFB8kSJlc1eG7qkcw4e0JjaHBheAwAAAESKtLXa+mD0vZ7QAy92RLeQLlGMBDkSRKkjTm8LcvTeHXeTn1I5or1AWcuRigipRU2OWM8RXfQxIuRYlG0o+71PRsjmO1aTlq7VrGLkCCTliB6TScqRkLF5h4qQdJyPHKkLUjZDbEoJUotaxUgtUgXJ7A7R6f0v61oH9xVq9OX8vw0AAADgHUeRVpdj9UfG20fv/74/umWGilBXbIp0siQlqVOUI190F3nP1D3kPx9fLZOj2YbVVCQobcSZbylyJFSPTh2PkFPH6HpGIfKLz4XIf9sSJ+6VVIxixCFWjYTIz3k5UgqPPchnNbEHpKg8Pq0gzSZH8qZtcZVuFTlSSJKKBKULL0EpQiS/7YmROlo9kjanbR38bpmxNZqTX5TH/xsBAAAA3lHomjqdrUP3fMk9ev8lOpzWFdsuyBGVoZRQWdpOfJFd5MGt95L/+IwgR7RqxOSIiYyaHM0lsjWT5NWjY2EmRSePRcj0sRB57cAw+ez+KOkeGid2f4w0+mnViK8WcXIUVBEjhRTJ5IgP/1yFKMkEzC/PGIta47ZQQZIESV2S5ipIvBCljUdKRBpe+31ta/9RjcnZnJNffCv/7wQAAAB4R1Ck1VXUd8Q+4Bq9/9VAhA6nUTGiq2BTGRL7jng5iu4ie7bcR37w6XFyVl45Wig54obUBDmKkBN0ltqRMDl7aJT8+R9FSCg+zkSmyR8ljYEYcQTi4rDaXKpG8gqRXITSRf48/rUECUpE5Ws4/OPEIXtsg09cGymDHCUlSSlCalGTINpflJQhel3YTkR+20yrR87BV2tb+x8u1Ogr+X8rAAAAwE1PkbY2ty4Y3eAKbfp3P2vAppvKClFWjUQ5igtytHPT/eS5T3FylHZYLdukVo2obAnCJZ2HyZnDI+QfPhyfuX1ykjR0riE2X4Q0+CLE5ouy83pfiNT7wsn4I2KiYmIpSZ1Fxt+Ok/qUyJ8bV+kJkjdP0wUXY2y9pXovfS1RgqiIuELE6hoh9R763sUNcdM0Z/PJpjmbClGKJPFipCJI9L3UecPE2DZCBenftKa2NTn5xQX8vxkAAADgpqa2qdPdNnLfn/vCm39HV79mVSNRjLpkUZOjqfsfIN/7UypHdPuQhZAjmRjJ5EiqHNHzM0dC5Id/Gpl+ZOvGk8Hhu840d6870dw59kpjR/wlezD624ZA5AWbP/SCzR9+wRYQE4yIicrzG5ZA7De2AD1Gn6epp/ELqZPHF/21kEgy3sivrd7Ir6yeyC9pLJ7wLyzu8H9Z3OGfWdzhn5pd4R+b2kP/aWoL/djUGvq5pS1yxtgyeFnX0ENq6jpIdV2Q6Ow9xOIcJg1eusXJWEKOqGjxUpQSFSHi5SijFCUiyZFUQYoQiztMN6f9g9459GWtyenKyS++jf93AwAAANyUFGlra2yd0Y96wptOdESpBFExokkVI7kcCVUlYbba5nsfIP/yJ+PkjLzniEmNmhxl05AtSNHJI+FkxUh8PXZ+eIT89onQb//y/eOf3bfljnevXXf3o8Px2x/sHZ3YFRwY325r69xabWneUm1p3lxladpcxY7NW6RYXX1bmrrHNhtbOjdXWpo3WV19m43NnZsqzc00DyRian6gIjX305Qbm2juU8TQdK/W0HiPVt94t1bfdJdW33SHVt94u0bn2FBWa19fVt2wvtriv1NnX/Wk1hh4uUzXTsr1LlKud5MKo4fUWIPE3NxPbG55FUlFiFIiVKZ4KVIIkkKGRCGaJWa691rr0Cld68D7CjX6Wv7fDgAAAHDTUaStzasLhO9yhx/4cYBO0xelR5AfSYqkc/6aIEf33/MA+fYn1ijlSCE9anLE35bkKKyQI+E4Sk4cGLz0w09FPv3+e1fUR1Z6crqCntx2lyvH0eK8rc7ecuvykjL+Y6awvLz2lipL8y3LlgsLQS/X1t5SUHx1FoXOLy6/VaNvbyszeL9Spmt/o9zgJhUGjxg3qTL7iN6+gtS1j5IGb3KYja70namKNKsgZSlGVnYMy26HiamNzV77T43J+a6c/KIi/jMBAAAANxW6pk5f28g9f+kNb/o9G06TqkZjyZ6jVDlKPfdHd5K779pE/ukxdTmigqOUIbkQqcmRGKlSJAoT7TM6fWSIvPDEyLc+t7Wjt8mkuSGHefIKy3LKdC1ry43e75cb3JepFDE50nsIkyWTl9TWdxJzyyCxuZPDbKy/SUWMknI0F0FSilEySTmi51Z3iBjbht/SOQe+pjU5O3Lyi5bwnwkAAAC4KSimw2kd0Y97Qg+cCtJp+/EdSTHKKEeSRE2RQGwnedcdm8g3PzZXOcpulezTidehw2lD5JUDA786ssN3v9NcdkMv35y3rKysrKbpvVq9++Vyg4tUGN1MjqQKEr1dZQ0QQ+NKUtceIg1ecTabONQmNX4nBCkLOUrOUuNlSBlaMapzR4R4wsRCF4d0Dk3rWvs/WqjRGfnPAwAAANzwFGt1BQ3B6L2e8OafBMQ+o24mRmpVIy7sfqHCROVo/e2byf/+yFph5eqshtX48I9J9imdFm+fODxKThwcOPebzw9+bH234ab441xYZmzS6F3PaPWuS1SIKuVDbFSWjG5SafaSGlsXMbcOsSqS3SesjZQiSF6+gqQiRqIcsZlos8UtylGKIEXY8JreOfgLjcl5f05+UQn/eQAAAIAbliJt7S22YKzLHd70N4HI1jfpekWsaiSJ0RzkKBjbSdZu2Ez++r+vZWI0dzni7082cZ8+EkrK0aGht156YvDrx3f6OlyW0htyOI0nd1npbSXVjjGtwf2vbHjN6CKVBg+pNHhJpdFDKo1eJkjlrIrkF6pIbfJeJEmQ6NIFNLMMryXWOFIRIpkYMTlyh5kgSRUkq5vOXgsRU/vIjN458PcaY+vKnPyipfxnAgAAAG5I9E2dZldo02d80a1nhAZsOpwmk6NEQ3aajE2RbvpYUY5Wr99Mvv6hCTakxstR6rAaL0YqgpQQI0GO2LXDw+SVJwd+/PROz+0uS2kh/3luZHKWlZaV0OE1g/tlKkFUiqqYHCVDZ7JJVaRaG+1FGiD1dEYbXTNJbNRmi0Iq1ljiJEmUo7SCxMSIypAQuSBROaK3LWz22uDF2pb+xws1unr+8wAAAAA3HMVaXXFDZ3yXN7rlV0EmOlSMdopiJE3hl6IuRqlytINE120hf/GBSVU5ml2M+AhiRFe/Ps1EiQ6n9Z996Qv9H7y9R6/nP8/NwLIyQ1MZHV4zuF5nEiQTI4UkmdykyuInescKYmkbJTYPHU5LHWZLrp6tUkESh9ZUh9c4OUoIEotYTaJrHzlHSG1L/2/LDC07cvKLrs40PwAAAGAxWF6uW9LQER92Rzb/UyC27S2hYkTFSKoa8XIkC5Oi5LBbQo7iO0hoYiv56vvWkZOHVRaBnIscHZXkiA6nibcPD7316oH+r31xtzvgtt4cw2k8OQUlty2vssc1etd3KvTut6UhtdT4WOhMNiZJZg+pru8gpuYBUu+KEltKFUkuSCpJ2UIksxylCpIYF+09Gpqpbe3/tsboHM3JL8rlPxMAAABwQ2Bs6ba7IluOeKNbLwh9RlSM0lWN0smRcM7kaGw76YjvICNrt5Ev/fF6cuIQlSNpAcf5yZFQNaLnYXL68DA5caD/p1/a7brTYy25qdfXySkoKS2psj+k1bl+U2FwkUqTVEGiUpQqSKyKZBKqSJUWP9E5ViaqSHwvkkKMMg2vpZEjQZBCMkEKsb3X9K2Dv6ttHThYqNXb+c8DAAAAXPcUa3Vl9q74w97ott8GU8RIVjXKKEhyOUrObKNyNLhmijz93vXktbRypCJCKqHVIipGbEjtyCg5faj/3GtPrvroHb3vjKnjy0r19Rp9+wGt3nWeDa+ZxAqSSUxCjiRBkobavKSmvlOsIkWIzRNnlSSh/0hFjlIEiR9aU4pRUo7oPnBhcT+4UWJ0DtPFIV/WmNr25OQXafnPAwAAAFy3FGtrc+wd8TFvdMt3grGpy53icFonL0YZBUls1JbkSHwulaP+8e3kyKMbyCsH6Z5nsnWJ5ihHghgJknT68OAfTh7o/9pX9riD3pt0OI0np6DkluVV9n6N3vUP5XrXW7R6VGXykiqTj1TKkyJJNFSQPKTS6ic6+wpicYq9SFSQ1PqOEnIk9B6l9CClqR4l5MgdInUuOrQWIhYqSG0jdIjtO+XmtnBuQTGG1wAAANwYGJo7ne7wpi/6o9te72Cis5PNTutMCFE2PUepkeSIilbf6u3kyfdsJC8dmJ8cST1GZ2i1iInREDl5cNWPv7zbtdFjLVnGf56bmZyC0mXFVfYpjd79C1oVonJUbfLJBIlWkXg5Eu5jQ21mL6mWV5HUZq15qQypyJG0ppGKHNXJ5EiqIDFBah8lhtbh3+udQweKMLwGAADgRqBYW1vh6Iy/3xfd8iqbncbESBhOE+SISo4oR7wQZZAj6TlUjnrHdpDPPrSRvPhkUo7U+43URUkaTjvNeo6GyelDq6ZPPNn3oTt7dTfl7LTZyCkoNZRUOT5TbnCfrTJKcuRnSakgJSTJL8ZHKoxeUk6rSJYA0dEZbc4RYvPQhu2kJNVROZKiKki8GAlylKwgjTIxYnGPEmPrCN2c9rdak3NvcbmpZnmFKV+IuWB5hZkepXMhlVIsy8TQc3nyhVjzSqpo6nJLq+tp8kprbCxlNQ35LLUsBYsc6evMlrwFCP+a2YR/jesl/PvMlMTzNMrkpwn/ODG2tCnLGMX7zxjl173C6MSku55tahtys4jy6yi/Zq70mtrk67Pnl9XaaHLoMW9ZCbYTAjcWxdraXHtHdL0vsvmHwfjUjDSclhCbhBhdgRyN7SA9YzvJp/ZvJC88ESFnVeVIkCJh3SJZmAzRjIrDaaPkzOGBt04fXPW1/7HHHfBaS94Rw2lqFJYZurV61zcqDO43q1n1yM+iKkhMkgQ5YoJEq0isJ8kn9CI19ZO69jAbalNUkDhBUu87omKUTEKMxN4jOrxmahuZMbQM/5vJOfwJc/vIQ2bXyIPm9pH95vbR/Zb20f3C+Qg9f9DiGn3I4g7RvFuWhyzu8EMWT+RBqye83+qJCPFF99f7x/Y2BNfsauhYy2LvnNht75zc4+ia3Ovomtzn6F6339G1bn8jDT3vFo7i+YOyPOTomnzI0T2ZPIqxy84dXZMPpou9a3I/jSOZfVLsXZN77V0Tex1i7F0TexxdE3vo0d61VhHxPumx9LiPj51l7T5791rhKIZ73F5H19q9dlmk1xQjvgf2PnYLkV9ThN6fTeSvyyX59aXvhyLdNPTnl8jexu6JPamh1xLZJ2SCPo5P8jlda+XZK4bddqSN8LNKpDsR9vrCexXTI70X6WunvC96ZLebeoSI98murdvXxM7XJdIoPjZxf9ok7t+bSC89Tu6haWTHdXsaWSbp9283l11idjd2T6imiWVyd1PP5C4xu5t7JsXrE7sbuyZ2Obomdtq71uxq6BrbU2P3xfKWLa/gf4cBcN1ibO5qd4ce+KovuvV3tDcotWIkiA0TJkmQeCFKK0ZyORIqUZ/Yu5H85gsRMi1u+6FMcvhMHqHPSBhOO3NoiJw60Pfjr+xpf5fXWnJTLfY4V3ILSvNLqhz3aXWun1Ya3TPVdLgskxwlBCm1isR6kWgVyb6CmJ3DpN5NpSgpSYkqUraClKgYJQWJLgxpdoWIyTl62dIWetPiCr9hcYUuWVyhi5Z2KaMXLe0j9Pg6i4smRHPJ7BqVhd4OvS5k9JLRNXLJ6o9fbOxaf76pZ8O5xp715+ixqWcDvX2hsWf9BXps6ll/UZHeDTSvN/WsF9K7/pJwvu5SU8+61xtpetdfYulZJ0Q4F+5Ln4vpM3mBpqlnHTuKOS+Gvya/TUOfP9/wr6WIo5vlvBj5+1KmO8vQ1+avCaHXhai8l2RSvn/s+yZ871TSu+5ik/RZe8UoXo+L/H1k937UIv1shWMv/zNXD/03lvh3Jj5XuMb+DcrO17PHJK8lHiN7foZ/e8n3w79vKeelOOQRf1bJ48T5RhZ2+1xj94SU802J+9aeb+yaOOdgWXu+oTP+uq0j+t2aBt+avGUlBfzvMQCuO4q1uipHZ/xD3siW1/jZafLhNCZICTnik40cCYL10V0bya8/L8iRtOWHsMp1crXrRGjF6CitFo2Ss6xqNMqm7Z8+uOr0ySf7PnBnb+07cjiNJ7egpLa0yv5YucF9qsroYcNr1Ua5ICVFiVaJlILkl1WRaC9SBzHKqki2lB4kLm4adTlKCJIsdGq/2TVCzO2jxCSlbUTMcGqcw8ToHEpNK80gMSQyQPQt/aS2ZRV7LUfnOtLceztp6t1ImnpoNrA09qwX0q2WdVlm8rqPQ+VaNqHPS5dsHjPXqH19/tpChv/6LF0Tix771Urn1cjaDFnDZVyMcLuhYzWpD8T+0BAc+1KtPejKW/bOrfaDG4BirS7f3jl2ly+65UcdMTqcluwzSolUNeKlSD7UljbS/TtIR2wH+dCODeSXn42Qc9LWH4ktQNLL0dkjI0yO6PH0oYHfnziw6stf2eNyv5OH03gKywx+rd71tQq9+/d0aj8Vo2pTYJYKEi9JVJA8Yi+Sn+gaVhBLK60iiQ3bsjWP0suRKEgKORL6j2hjdvqMJNM2Qswsw6lx0gwRUyKDLMbWfmJqGyKOjgnSuuJdpHXF7aS193bS0rsxkWaang0qWZ9l1l33aVK5lk3o89Ilm8fMNWpfn7+2kOG/Pkv35KKHl7RFS9fVyESGrOWyRkzymj04TmzB1afrg6vfX1Jl0fG/wwC4bjA0dwc8ka3/KxCbelMYNtulIkfJ6pFCjhKSxAtRGjmK7iDv27aB/NfjghxJW39IYkRvn2FClBxKE6SIJkTOHh4kpw72f//Le9yrPdaSfP7zvJPJLSjNWV7peJdG7/6PcqNnhs5aE+QoIKsccaKUMpNNJkiyXqTqus5kFYkOtcnWPBIEKcyiNrzG9xxJfUdKKcokR2qCNMSFCtIAMToHSYN/NWnt3UicVI5EQaK3k5K0QUiPPOsTUQoRH+UfXuQmSLeUyZTwsnOjRSFOatfmmKauCUXUBKmpU0ryfltwnFj9Yz+pqvfdm7uspIT/PQbANadYq6uxd4095o1uPc2m7bOhNF6M0kQhR3KR4pO8PxjdTt67eQP56Wci5NyxpBwxKRJXvKZyxMLEKESmqRgdpedD5MyhVa+ePND/7jtX6Cv5zwPY7LXK5VWNH9bqPSfo4o9C75G8ekSPSQlKNGaLSRlmS/QieRNVJDOtIrmoEMkXhQwnww2tyfuNJDlKCFKKJMmkSIxZipoctQ2xKhFLQo4GidE5wGbRtXSvS8hRC4uKHPVuIM2JrE+NQoh4OXpnShJfeeGv8bcXuxo0W9K9p8yZVI+KeCxGFBWh6zEJUeKrR0pBSka4nw4B1gfHL1v8sb+vrPP25xYsz+F/jwFwzaDDaQ2dY/d6o1t/EmT9Qvwq2CpCpCZH/HWFGMlfaycJRraThx/YQP7zUxFy/liEnKVilEaOaLVoWjacNn24/41TB1cd+coed7O3rpT/SECksMzo1ujdf16h9/xOqB7Jh9dkcpToO0oVpAqFIPFVpFWkrj0kVpGS1aNUOZIJkoocpVaRlGI0uxylCpIwzCbIEb2vsWMtaV2xUagcseNGmSBlkCOFCKlF+Uf4ZkomsVGKROrj0l3PlGwfd6Xh35t6VKRokcSISobauXT7uo1ChmaLTI7EChLtQbIG4hfNvugTFXXexpyC5bfyv8cAuOoUl+tuaeiI+92RLV/3xba92RmjojOLGPEilFaO1AQpKUeByHay794N5N8/mSpHZ8XhNHloxWj66Ag5e5RK0gA5e7D/O1/d4454rSVYXTkDuQWlS0urHOu1etcPKwyy4TWjNLzGRaWCJFSR+OvSukh+UtvQS8ytQ6TeRYfahL4jtWE19b4jWVSkKEWQ0oqREF6O6NAaPdJ946j8CHIkCBKTIxVBEiQJcvROi1KMZJFEhZ1fnd6kbKIQlcWIyjCaMrwAZRNOkDrWEKs/9orJE3mkqMJUzf8eA+CqY2juqnWFH/i4J7L1JD87LW3kIpRWimYPlaMdd20kz31CkCM6Y40KEpUjOnQmiJHQY3SOVY5GWZ/R9KFVL5052L/v7hX6cv7zACW5BSXlJVWO92v0rlfpliHC4pDy/qPsBCk51CbeNnlJuTSjrS5IDI4+YnWOCkNtfL+RWDVKFSRejoTwUsTSlqEpmxMkqfdIaMweZO+B9osk+o4yVI/mLkdqUf7xRa6fUMmRn6uGSVCmKGXlakchMgsVhfzMNbwIqUWsIHUm+5RswdXE4ov8e0Wde31OwfJ39JIs4BpTrNUV2jvjm7zRLT+jq2Cnzk5LUzWST+GfR+TPpXK06faN5Lsfk+RIqB6xniIx00cFMWJydHiYnD3Yd+H0gVWPf3WP2+bDcFrWLCvVt5bpXF/W6txv0K1EhJWzueE1+TCbarUoXagk0S1I/KTW1kNMLYNsqE0uSMntQzJUjrIWJKUUJcPJkXOQDcc1dqwhTm5ojUVFjq5ckJR/kJHrNwoxUotCjvgo5eVaRyE9LPxyFCrLUihkZ67hRShdUqtHjs41pD4Yf8vkDf1FhdUdyC1YjhW0wdWnWFt7a0MwusIT2fx3gfi2t/hVsNPJUcr6RukiqyZJj5eHVqbo0R+ZInev20D+74fD5PyxsEKOmBiJckT7jc4d6SdnDq76+6/ucff6rFh6fi7kFJQsWV5pX6PRuZ4rN3hnklP7VfqPVORITZD467SKRFNlDRI924KENmyHE5KUKkgqYiSTIyHqcmRRCFE6OZKG14aI3T9GWns3iNUjmRyx6pFSjlrmJEfKP7g3VybF8NdvjihESC3XqQCpRSlEanLEX18oOaKiIz+fLcnm7CY6vb9jnFi8kbMmT+jjxRUmM/97DIBFR9/UaXaF7v+sN7J5OrF3WkoTtrocScLDX+PFiBeidHK0ce168q0PhdhstWnad3QsTM4eo2IkyZF4fmSATB9e9fyf7XVt9lpLlvOfB8xOTkFJWUmV44+0Os/LlQahOZv2HrFkIUfpBKnC4CcVBrkg0SqSj9TYutlGtnXto6TOJQmSsPFsUog4UUqRI5UKUkKQMg2xyQSpTage0Ubx5Kw1vnKkJkhzkaNMkf4Ip7uOXC9RCFFWFaO5RikzQvjHyR/LX88uyurQHKKQniuMNH2fHuWRiRKb4t+5htgCY8TsCf+qwurelluwvIz/PQbAolGsrS1q6Ijt9EY2/yoY2yYIi2I4LbMcJUUneS1bOaJbh3Supg3Z28ja1evIN95Hm62pIFE5CpFpUY5o1UgQIzqk1n/x7KH+T96zUo//m7gCCkv1zVpd+7PlOvclYXNaP6mWy1EiSjFSk6NERDkS4iXlBi87yqtIVJAyDqmlCNKIsnKUEKThNNWjocSsNfnQGg19XpPKrDWhcqSUo7lN508X+R/fdNeRaxGFBGUTFQFRj1xo5ILDC9F8w3899SiEZ9YsZAVJLSpyJBekzrV0aG3G3jE+U+ePX7Z4w9+uqvOEc5ctz+N/jwGw4BRrdbfagpE+d/iBb/ljW9/uZFP3JcmRV4zU5YgXHUmIErdnk6PVcjmaIvHoOvK1P6JT9AU5mj4WJueOhch5JkeiJB0empk+PPitP9/vXeGrK8Uq2FdAbkHJbaVV9jGtru175Qb3ZWFrEbXZa2oLQ6pIUbpQWTIIVaRysYpkbB4g1jZaRZql7yghSbMLUqokCXKkOrTWRheEHGPio5AjljSVoyuSo0xR/sFGrk4U0jNbqGzMSY5oeKHJFP650vP5a7NHKTxzzcLIkUPlWmY5EpqzHZ0TM/bONZcbqCD5or+3eEJPV9a5W3MLMFgAFhlDc5fVNXrf572RTdPBGB1O48VobnIkCVHitvxcJR0JOdpFgpEpEgpPkj97dJjtk3bueIRMHw+R86IcsdlrR4bI2cMDv/7zfZ7NvrpSrKC6AOQWlJSWVNkf0epdL1YaaPVIEiQVOZqvIDE5oudCH1I5XTySVZFWsi1IaMN2RjnKNLwmG1pLFSR1OaLDanTNI6tHfdaaIEi8HEkVJDEKuVmIKP9wI9cmCiG6Yjm69lGKT5bpWuBhtU4pKmIklyNRkKgc2TvHLzcExmas3vApsyf0x8UVxhr+9xgAC8byct1yR9fYPl90y/PB+DYmMoLY0I1g5VI0e89RigzxcpRBkDpW7yQdMjkaGpkkX3z3EDl9ZIScfypCzh8PkwtUjmgViU3d7z9/5tDgY3evNGA4bQEpLNU7tHrXU+V69yU6vZ81aKcMr8nlSL0HSSFEfBKCJOtFMvlITX0324LE2jaSUkWii0CmE6SUlbPnKEeJBSHb6YKQdNZa9nKUECSF2CxWlH+4kcWPQoiuYzmSJIa/Lr/virJAcpSoHs0mRyzJ1bOFobU1l+mxITBG6ryRn1ZaXffmFBTjf47BwlNcrrvNHowNe6Nbvh2MT10WhtP4Bmw+SinKWo7SCBIvR/1Dk+T4/kFy8vAIufBUlFw4TiNsJ3Lu6NDM2SNDf/Nn+/0dvroyDKctIDkFJbeVVDliGp37e+UGz+UqI60e0en9anKkrCApRChNaON38rbQh0RFqdISIDq7sJGtVaWKZHGNsKjKUYogpZcj+Wa0VI6EvdborDVpr7U5yNGiDa/xUf7hRhYnVHjk56qh0iE/X6RQKeGvpYtCZhYjTGzmL0lUjBKRyZFDTHo5WsPkyBFce7mxY80M/Z8Zmzf8B1P70ONF5fgfZLAIGJq7ba7QA4d8kS3nhb3TqOikkyNltUghRbwgzVmOdrPtQ1YMTpCDewbJiUPD5PWno+TiU3Fy/niMTB8bIWeODP78q/u9d/nqSov4zwOunJyC0pLlVY3/TaOns9fo2ke+xOy1FDm6kuE11cirSF3E2CxUkeR9SMJ+a/SaJEiZ+44EQUonR8mhNWFByOSsNdpvlJCjNIKUsq2IQmYWI8o/5Ei6zP17J5cftWsKObqOopCYxcwCypEkREo5okNpYrrWCHJEpYjJ0VrSEFxNrO7Rn1Va3ZtzC0s1/O8wAK6IYq2u1N459m5vdMsLHXTafor08GI0DzniRSmDIFExkstRd/8E+ezOAfLawWFy6ZkoufD0GDl3PEqmjwyfP3V4+EN3rTTq+M8DFo7CMmOLRu/+crnO8wadvZY6vCaJUfrZa3OTJLo/mxiTIEnCjLYAm9FGtyCRV5GSG9IKMqTaoK1Y+yidIAlyZGofpr981Ruy08hRSvVI8cf4akb5h/7mDv/55xL+tZJRCNBsUZGUK4lCQlTCP46/vWhhQiSPUnyyiVKOBEFSVo1kciTGEVxz2dExfrkhOD5j9cVOm92h/15cbjTyv7sAuCKKtbolDcFo2BPZ/C90OE3YB42vGEnn6bcD4SVHIUTzlKPgqknyyakB8vKBYfL6szFy7pk4OfdUeObMkdA3/sf+YIe3vgybEC4iuQWlS0qrGtdqdZ7nyvWey1SCpL3XUgVJKUVXLEjitcS6SPVdxNDUz2SHNWy30z4koRdJGGJTESTV4bXhRM+RsjF7kNh8MdLSsz51SC2DGKVUjxR/hK9FlH/wb87wn/tKonxdhQSpRUVuFiIKKbleopCj+QsSizikJpejpCSlSlETPXasnXEEqRitvlzni/3O7I58ucoWcOcV4u8AWGAMzV3N7aP3HfdGNl+kfUbdqrPTZJKUZhNZSW5URYkXomzkaGw3CUa3E1/fOvLRzf3kxSeHyMUvjpGzz4TJmeOj//WV/YF7PHVlxfznAQtPbkGppqSq+b0aneflCgNtzpYPr2Ve92h+giSXpOS1cvo6rBepl5hbhkhdm7QPm9iDxFeNMsmRoilbqh4NstejeznNS46uefVICi8SN3L4z7bwaUobFSFaYDmSxEN+ft1GIURq1+aQRL9RtnK0ZsbRMT5T74+/bfFEvlNtC47lFZbl87+zALgilmtry+2d8fd5IptfFqbt7xTliJei7OVIEV6G1MLLUZwKkiBHnpUbyAfvW0Wef2KAXHg2Qk4/NXzmxcPDH9i4wqjnPw9YPArLjI0ave8Zjc57iQ11ScNrCUFayOoRL0hJUWKz2sw+Uk2rSI39xOoUqkh0lW3VxuyEIEm9R9yMtbZBmSQJC0LS+xzB1awxm85ak+SIbi/CS1GqHHFrH10TUeLF4mYI/xnln5W/Nv9IMiS97qyCpCI62UYhHapR29bjGuVKJShduJlqqYIkl6MJWjWi5zO2wPiMxRN9vsrm351XWIbNxcHCUqytzWkIRCa94c0/lNYz6qZypBAiOmtNJkfZStFc5EgWSY6CY7tIIDw141rxrplH7xwg//W5VeTCsyNvv3R4+M+O7va7260oo15NcgpKb1te1RLT6APfLTf42PAaXfdISjbDa0r5ySYqgmSiEWe0NfQQc/MgqaOLR7KhNrkcDavIkUySODkyMzkaYIJk80ZJS/d6WWO2Uoj4pFSP+Kj8MV7cyMWCl43rOfznuLaZVZCuUJKyF6VrnMWSI5q0s9XotH2ZHHVOkIbg2hmLd2za7Il9urjCVM//ngLgijE0djpdw/d+2R/e/EZnbJbhNEmOpKqRrHKkKkP87Tmkg1aP4jtIML6T+Ee3vdXae+fb+24fIj/5VAc5dazvR0d3eda1WUoL+M8DFp/cgrKS0qrW95TrAy+ytY2YCAn7ryVuS3KURpKo3MxdlEQxYnu0yatIdEabl1TXdRCDo09cPFK2KCSVIkmS1ORIXkHiBIkOrTV3ThBnb3JKPy9D6UJlSLGC9jUVpBst/Oe4tslqmE1FejJFIR+qFSK+csTffxWzaHLEN2Arh9Ok6/aOiRmrb/xNkzv6tSpbsCuvSLOU/x0FwBVRrKnVNATC7/WFNr0kiRELL0V8ODlSiNFCyJEYKke+0La3Wvvuenv3+lXkx38aJD///MqPjwV11fznAVePwjJzY7nB93SF3vc63f5DXkFKEaI0cnTFVSROkKQZbZVmP6mt7yYmtnjksKwxm1aPxKSToxRBkg2tBcbZUNp85ChtVP74Ll546bgekum9ye/jP8u1jbIXiZMlFQHKFIV8pA0vRzebIPFixAuSMLzm6KDDaWuIxTv271W24Ia8wjIs3wIWliJtbU69P7zaO3rfdzpjWy/3xHcSmu4xKkdTYlTESC5HalUjSYpUhGduocNqVI52kEB0+4xr4N6Z7RMDl7/5kaEf/t3Hw6MDbrQaXUtyl5UuKatpipXrPf+vXO99i/UfsRWyuVWyeTnibivFJ9soh9kkSaKvWy1tZNs6mBQkVkFKFaNkqAgNCkeZHLGhNV+UtPSsE1bLppvPZjG0RitGUhRilC4qf4wXLryAXM/h3/u1jPI9pa0cqcjPXKKQEBZ51YgXClnSyhJfdVJJiuxwkd+f6etfUeSbyvJSRBuwaZ/RxIwoRjN1vvFXrd6xR5dXmPE/yGDh0TV2FjuH7vr/fKH7T3THp5gYCXK0XRG+v4iPomq0IHIkVY52kGBsO/EM3k8mIpFLH9ke+dCn9kdrO1oN6DW6huTkl9xaVtukrbT6P11h8l+k238IwiPKUbreoznLES9BchES7zf4SSWrIglylFJFsnURU/MqJkOJCpJMiIQkz4Xeo2TY0Jp7hDR1rU3pO2KVJIUQKcVILQop4qP4A72Q4UXkWod/fwuUq/C9TErS/CtH2SQrmeEfIz0u3ePnFbnQ8LevJDI5ShGllCbsGdpnZPWNX7R6xw/VNHQ15RdhrUewCJRUmvJsweiEd/T+73XGpt6mFaOe+A7SwypHc5MjVUlSkZ25Rhpa66ByNHQ/8XdHL41HR58cGwo49FWl/EcCV5HcZWW3agxt7TUNPV+pqe9+g81U4yUonRzJrilliE8mMZJFtj9biiCxKhLtRVrBZMfaTiWJl6NkmBylCBLda02YteZks9Zo6BCbJEeS9PCClF6SFDI0l6j8kZ57eEFZjKT7Wvx74R/HX59j+O/XXMO/Hgv/GZJRVI/mLEiTiSiqRLOFigV/LUWQVB4nCQn/OilRef48ZahJkQkWQYDoY1SkSNpctkuoGjWJVaP6wPjbVu/Yt2obugbzizS5/O8kABaMkkqTtrFz/JFAZOtvO+PSUBqVo1RB4iUoXRZejrazdMZ2EO/wfcTuj5AW38CLDY1t+4qKijF18xqSu6y0SmN0fdjYMviaqXEVqbYESaUoIylrHvGSxN+etYqUpRzJIn89emT7wZmlGW0DxOocItY2IalyxEmTVD1qGyQNvihp7VlPnCtT5YgJ0gqlAGUTxR/mOWVd+qj8Eb8hwr9//nPNK/z3bbake09yUUoVJ4UcpQhSUn6Ut69AjBYzVFrUrl1JxNcRPq8gSPIoBYkNr800dU7OUDmyBdcQqz/+i5qGjs35hRr8nzFYfAxNXQ736KanAtGtr3eObRWFiBckpQipZUHliK11JMhRR2wn8Q7fS2z+CBvmaPUP/qut0RlfVlSUx38esPjkLSsr0Bjb7q5t7PsxXV/I0jJEauo6SSWdVs/ER5Ijlan9/O00cpS8xstRJkGi1SLxuXSYT0yVQVxqwBwgNfXdxNC4iphbqfxIgiRlmF1LjSBI9R6619okca6UbURLK0miIGUeZhPTs37Roqx2pIuKlCxq+K+/eOG/J7Nlrs/jv14yKnKkWkFSStF1J0bpwstOFuGrRs1i2OcWrwmPFapI8mvsSMWoc/Kyo2Nypt6/+nSdN/bR5RVmE//7CIBFobTKfJujczzuC2/5bkds6nLX2BQbWhOG11LDy5Ba5idHO2VJyhE90iE1Kkc+sXJE/4++vn3wzdbAquNWR0tzQSEmK1xN8grLbtGaXN3VjhXfMDQPvMk2gnUOE31DjyhHQmO2sKUIF34mm0rkYpRejtJJkjSU5k2RI9aPpPeTcn2AVJiCpMraSXQNvcTQtIoYW/qJqVXKgBA6lMYirXfUT8ztI6QhOE6aeujWIOL2IL1Cr0naP440vSrXFjSTYmTDIHx6xPDXFyrS68/na8ifO++sY1F+b9Qjf67ymniu+j7XEUfPetLYTX/usi1iunlZkqV7Xdoo5WmR05Vl5vr4NGmWkvK5hf9m6LCdo2M9sXesI/bOSdJA1y5iWUvsdLo+nZ3GhtMm6GKPb9h8Y1/R2Tt9+UWa2/jfSQAsGqVVltLmnolHA9Gpl+jWIT2rt4uCJM1em4cgKQQoU+RyJAqS9Bqx7exI5cjhj7J+kbq2IWJr73+12d/3kLaqtoL/PGDxWF5lM1U7VnxG19h31kSrL1SO2kZYT0+VmVaEMsiRWiUpbaSZb7wQ8UkKlSRIrFokXitnU/6DvyvXBV8rr+34baWh68Uqc9dL1dbul2rqe1+ubeh9RedY8aquceWr+qaVr+mb+14zNK96zdDSf0Ieo3PotTpP9LWGwPir9o61QjrXSHlNzAnZOR/549Wey1+fcxpYxl9r6FwjC70tXRt/raFDJYnH8M8Vwz8+mRMsnfLIvyYLfU/ie2Pvj4v8vS9E1oqRvW7XWppXZPe9kszaV+yd9L41rzR0ya+vednWueYlW8eaF20d4y/YOsZ/Ux8cf74+MP5rm3/N8/aOyXONXZMzjR1sJpW0anPynItDjHDOdpTPLsEriz1t1orhrwtJ99x01+2BZPj30Nghhs08EypF9o6J39t8Ey/WeSd/Xu9b90ubf/LXtsDEb2yBtS/agmtfbAisedHuX/uSzbf65Tpv9J9q7R3j+UUarGsHrj7G5h6HN7z1WDC2/SIdSutZLcrRaprs5ejKK0ecHIn3054jRyDG5KjeRRf5GyI2d/9ztXWt43kFRdhT5yqQW1hWrDG5dtQ4Vv7S0NzP1gCSVp02NvWRagvdQmSOcpRRkpKCJEmSXJaUjxdSJc6cY+sg6YJ/qDB0frPC2PFohbFzW5WlZ0e1tWdnTX3Pzhpb767aht7dOseKPbrGFXv0TSv36pv69hma+/YZWlbtN7b07ze2Duw3OQf3m9uG91ldob11nujeel9sT70vvsfmj++xBeJ7WYJj+2zBsf3iUR56X4asFsNfzyp7+NQHx/Zy2ZdF+OekC/+8dGGPT/ce06U+c6T3wN/mrq9ORHjN1XvqO8Qkz3fXB4XYpHQIEe/bVR9cvbM+uHp7fWBsW50/vqXW3rFJ37TigRpb4H6do2e7tT38TXPL0JvGxn7CQquQTasI7b8z0aNKpMdkivrj+rhkuK+RRuW6IuqPMXDnBvZ6wpE/T4kjGeE9rBTSJKWPfTZzcz8xOlYRc8vIC5b2yMfMbbG7ra7V99Z71txv86/d3BBYu63Bv2a7zbd6h827emedJ7bb6onGlleYK/nfRwBcFUqrLbc19UyE/dGpf+6Ib3+7m1aPVu8UBSn76tGCylHidSQ5ihOra4TUu4dJnZuuXTP4hzr3qmeqrS2teQUYXltM8grLbtOa3APVjpX/qG/qf4v27NCNW1mfTvswMbUMkJq6DnFobXHkSClK/OOl/iLhdct1AVJeG/hBSYVjw7JSw/LCMsNtRRrTkmKteUlxuXlJcYVlSXGlZcnySuuSkiqauqUs1fVLS2lqaGxLy2ptS8t09iUanWOJRt+4REtjaBJibF5SbmxeymKiaeGz5GpGm5LmeWa+r5P6PP69Zcrcvk6m8O999ijfRwv9ud4m5latoenW/KKyWwpLq27JKyy9pazWXmJoWvnZKnPwjXK9h1TQGGjcpNLgFs89pIKu3G70kEox0u1MSf9YtyyZ7pPfz19fgLDPJ0X4zIokHu9KjcFFKo0uoq1xkxpL9w8qTa6R0mr7bWU1jbdqdc23lBtabik3ttyqNbbcpjU0L9HQ6JuXavTNt+UVYto+uIaUVVuWN/dO7gvEpp7vpI3YbHhNFKQsh9euWI7G5BHvH9tFvCP3E0cwTuqoHDFBomvWDBFTW/9rlva+h5dra/F/FotISbW9vtqx8kBt46pzxhahmVkuR3ThRJ2tWxSfTHKkIklMkCTxmV2MlI+VyZEkRno/0dT6Tml03kfzCiuq+M8DwHwprW4o1jtWPl5l7niDilGlwUuqDB5SJcqRJDhpY7q+U5Emis+RIRUmN6nkY3SRSpOLaHVuUm3p+rei0toh/nsLwHWLsaXH6otsezIQ236+U5zaL8hRdoK0kHLUlbgml6NhUu8aZZWjOjf9w0wrGKueqzA3j+fkF2FMehHIKywr0ZrcD9Y2rnre2EIblemsrmFBjuiaQeKq03p7L6kyC+IjbCOSKZwcJQQpWznixUhYCJK+doUxQMXozbJa7xeLyxval+YWYcFQsGCUVTcUGewrP1VlClyq0LtJlZ7KkSBIlSqpkiYJzCH0Oemi9hj++VcepfBkvk9+v/pjqujR5CZa+j2zdD5XWFI7yH9vAbhuKa223trUMzHgi079YzC+/S0qPIIYZdd/ND85kgmSXI7oUbwmyNEYkyMmRlSQ6LmLVjD63zS09X2x3NzclpOPP4QLCRtOM7tCNY6+fzY0D7xNK0RSnxFdHFGSI7q4Iu0rqLLSviMqR4FZqkdChSklkvikVJJmS3I4TXiuMCtNq/M/V1zesHppLvrRwMJSVm1bprev+GSl2f86rRxV6emMSDoRQClGLArxmD1q4pNOgtJdvyphn5tL4v5UcWLv0+QhGr2LVFo6IEfgxqOs2lrUvGLdrkB8x6+pmAgyJAnSjoQg8WKUkCOF+GQTpRwJr8XLEa0YSXJEj7SCMUgMzr6TeueKPyrU1NbwnwfMn+XVtoZqx4qjuqa+i0bWZyTsUUarRpIcCatOjxBTs9R3JG5Ca6KixEtRhohykyJKGZMUI2lfNzqcVq4PvLq83P7upbmFGGoFC05Zta1Ab+95rJJum0PliE0AyCRH2URFPBSCkelxfPjnLXD4z5gigtLj6FCaNMyYlKMyvYtUmIPPLSupgRyBGw9T6wqLL7r988H4zmlWPZKas2UN2rwYXZkgqcmRSuWIiVEyVtcwsbqG2Fo0emffj7Sm5o05+UWF/OcBcyNnWdktyzSGUo3Z9e6axpUvsOE01mOUrBqlVo5GiKV1iO1lluw7ykKO5LKT6T7VyIbTqBgZ6HBa4JJG7z+cX1TZxH8mABaCsur6fJ29+7FKk+8ibchOyJFMHuTN1VczymbtaxlRjsReJnnlqBxyBG5Uymqstzb3Tq7wR6f+d0d8+5tUiOjsNb73iBejhCAp5CdTkj1HbCgtkxwlKkapgmRxDRFj28Dbemff/9SaWnw5+UVYLOwKKK5qWFJhXxGqalr5z/qWgcusz0isGglCJPYayeTIKvYd0Q1f5yxH8tv8fSqRZqtJw2n0tlYfnNHoAt8urrCPLM0twt5LYFEoq64v0EtyxBqxlXL0TggVIP6aIrJGb0GOvJIcfb8AcgRuVMpqrAXNvRMPBGJTP5NmryWH2BZHjmarHNGp/LwcJYbX2geJztl/Vtfa98EiTa2O/zwge4qrG+wVjt4jNU19F4ytUp/RCDFLQpSYqSaTo/YRtjZKFVvvKEs54gVJfpxDNDqawAvF5Y6dS3OxXTdYPMpq6pfp7T2fqDQn5UjoDxKbjrlI1+TH1Mcpm66zjfT8qzqklibS50oJlSIp9D1TOTJQOQp8H5UjcENTVm2pbVm57rFAbOoUm73GhtSECg8vRAshR7NVjqzcsJrQlE2rRyPE6h6m1SOib+37qdbYfFdOflEx/3nA7OQWlmk0Ztej1U0rf2toHZhJ9BnRKfuy2WmpciT2HbUMkGqr2HfE5CgLQVKRndkTEGLyE60hQEpr/BdLa32fzSussPGfB4CFpKzGtszg6P0TqSG7WpIjNjNNTBb9RqkioRSf+Uf+msnz9F9bPfz7nT3CMFqVFJM8VJCoHHmI1uAiFRYMq4GbAFNLr88b3voXgejUG12JjWlnESSFAGWKrHLEV48Uw2rKITUhKf1Hb+tbV/6V1tTSlZNftIT/PCA9uYVlORqze7y6qe9f9a2Dl4U+o1FZ1UiMbI2jhBy5Rth6R7X1tO9Ikp9Z5IiKTpaCVJHyPEG82LR9XfByaa3/m0XlDX1Lc4uW8p8JgIVEU9uwzNi44pNVTI7cqWscsXWOkueKRRRlSTQs8+sBXSehaxWxqLz3TBGeL6xplAy9JgyvaQztVI7+bVlJDdY5Ajc2pdXWnKaeifX+2NQPOuPbZ+SCtDBDa5wcyQVJLkeBzHIk3abDa/rWVed0rX2PFWpqsYvzHCiubnBWNfZ9Wdfcf8nE1jIaJRbabC0XIxU5EiI0a9NNXavMcxhay1aQxMfTZQIqTUFSYQoQDV3sUef/ZXG5fdPS3KIS/vMAsNBQOTI1rfhEtTV4scrkIzUmH6k203hJlVos8vhu8vjZsVot9Htk9RMtXUXf2vncshIsAgluAkqrrRUtK9d9IBDb/mpnPDm8JlSQlGI0Hzmiiz4mF37k5egBJkdqPUeSIEnDa3RxSBMbXlv1S62x5YGcfPzRzIbcwrKKMov3AzXNA68aWulsNCpFKmIkFyT+WvsI0TtWpvQdZS1Is4U9ThpOC9IGbFJW65su1Xk/lldYAQkGVwWtzl5obul/zNDYd4HuK2ZyrErsJ2ZwrCQG6SiF3k5Etu9YItJ+ZNxeZ+muy/ZHM8ySbB6TkkZ5VPZQm3OEz8iO4r5r1Q0rSHXDqucKS/WQI3BzYGzpbfOGt34pENt2KavhNYUEZYpMjlSH1R4gjuBqhRwlhtPofmvsGl09W7htahuc0beu+qbW2NKXk4/hlkzkFpbllprc66qa+3+od9JtWehaRlKfURoZ4m+LfUf0F7LQd3SFciS/TzyyqpGRDqcFaQP2W2U639eKyhsCS3IxOxFcHbQ6xzJL69Bj5taRi9a2UVLXFibWtpAw/OwcSRN6nxTxmjT7k4UOXc819GuGiFkW+TXpXO222nOVSX4tem528qHD6KlJflbhXLomHIXruqZhomsc/reiMgPkCNwclFZbljb1rF3jj237186x7W93M0HKUD2Kz02Q5i9HgiBJzdksbGuRIaJ39r+ua+37dJGm1sp/HpCkuMburnSs/GpNU/8bRjaclkaOVISIrxyZWgZJTV1ndnLEC5GaHCUeKzZ4GwNEq6e9Rv4fF5fbb1+ai3WtwNVDq29kcmRqGbpIe+ysTHSE/QUzhz5GCN1+h0X6b0o1vEClJvHfqCxp71OVGOX1zEm+/3Rh2wqx15Z9Rum+VuE1dE2DRNc09APIEbipKKu2aJpXrntvILb9JTa9X7Z6tkKO5lg9UsoRvZ6tHMklSTyn1SOh/+h5jaF5a05+USn/eQDbIqSmzOL9SHVz/wk2nJYiRnR4jasWZRQk4RdgLduENgs5mk2S5GIkyhEVo7Ja36lSned9eYUVWLIBXFU0+sZlZufQY8bWgQumVroJM/1vgv53M0jMTi70GrtO70+GPj59eElKhq1MP8fIn3slryMIEC98fOSP4+VJ/N3Q3E9qmwapHA3z31sAbmhMrb1Nnsi2pwLx7RezGV7jJYhPssLEz1ZTkyNZdUghRoIQsbD7hXOjc2BG19L3LY2xZRWG11LJLdTka83ue6qbB36sb6W/BGX/tylWjVKqR7NG+D9XHduEVthfLasp/bKhs7RyJM5OK631/7601velovIG1xJsKguuMhp9Y6HJOfiYobX/gql1gFgS4iOToZTMRYwyC5JCWLLIgskRH0mI5J8vrUBJcjTE5EgHOQI3I2XV1tuaeicj/vj2f+mI73ibCpBQPdqlKkipAqSMdF+6ylEHlaPRTVnKkSRI4v1u4Y+8vrX/Ym1r32cKNbV1/Od5J7O8xh6sbur7K13LwJv/f3t3H9zIedh33JZ44B0JkgBIHvGyuwB4fAUWL+QdyaPueC/EK3lverEUp+lMmtaWTryTlThum8ykTer80U5qSW478YzrWEmmbcbtWC+R7cRpJJ2aNNOmres4fk0Tt40bO4klS7J0PsU6Eeg8u1hg8eyCBHngvfC+n5nfAARAcPfI4/3u2WefNecZrRgTseViZJQj8YvVUYYaaRSoclWZFpOyD9fL0YajR/IhNKkYmWenLVSHo4erAWWh4osc+oKXi8riBhlUpntjmcJjWir/pjly5FKOjFGjrZQhOc5idMMjHSoz9rtefOQyZEa8xnyd7bBaMl9VEoU/6gtQjrAL+UOjvuSJ9/6DhbMX/7x+eK22iKNcjqzDaxuXI7cJ2bVydG4L5cg+glT/WCwOWahGUst/7tf0i3v2ev3y/tyOPL3+SGD00BNhPf89Y55R7ew0uRRtqRwZrylXtaQ5Kbu5HLUoSHI5kp+rlaOAOJwWWfhLvzL3s929wyPy/gDXw6CS6I1lio+r9XIkRlLkEZTGqIooO9srSS4F5UbGMY/IWYaa0/wa63MiyVxVSRrlqCz/2QK7gpY6Nnbo9MOfWDiz9v27zl1slBy3giSVI/m+62n8tVEnoxyJw2qL99jOSmtdjqwRI/PjFeM2PlM2ClI4vfyfA9FUac9e7x55f24nnl5/jz82876gnvuGKobIs2I9I3NNo5aH0MQvSPkx13JUMlbKFpOyW5cj+WOXomSdnSbmGYnDaZH5K/7I/K/3DU/qXR6vvEvAdTGoNsqRZi9HRhkyR4waoyq1+47is524FJbrFmsUyBwxsu9fu7H+nIxypBe+RDnCruULjr47sXR/fu702qXDZy++LeYfmcWodTlyGz1yP6z2iK0cPbL1ciRHHF6bKVYjmfxbkfTyx3sDkQl5f24XHm/g3f74wWP7p098XhxOM85y2WxNozZiL0fG/xDHj9aLUaMc2eMyUlQvRgtGMRqpjRwNqgsVvzL/X/qGJ091ebzd8j4B18ugmvDGMsUn1FT+8kblyCoQxn3rMUfh2Wrk0rLFOA6NSZFfX0/zfsjFp73YRo4oR9jt/MFRb/LYAxfmz1z800WjHNkOkW1QkNwjlaNaeTLL0YNtlyP3rBgFSRP/c0nl/l9A0x/ds/f2vEBpf2gyNpJc/lhIz70mDqdtOmLUZpo+P1OqKvVJ2VsrR8ZoU+3sNPF5xmn7yvxf9A1PfrDL4x2S9we4nobUhDeeKX50o3JkLwWdKUUicmHZYuQi5Bb59fWPG4Vv2+VInPDROKz2x30BdUX+swV2FV8wriaOPfAv589eeFUcXjMuKSIXJGnkyK0UNZUj28hSoxzdu/VyVJucbR1eM+YfpfPViH7yDwJacmXPXq9H3p/dzNPr7wvEZx8N6rlvisNpZjHqTDlqTtlYITcYP2wWnlrR2agUOcpRdKE6ZJ6d9qYvMv/xbu/+SXl/gOvNKEfZ9suR+bhcdGrpWHGSYisyG0eUIOvW3I/G+9RKkfSejn1rO5Qj3IY0fenIoVNrv71w5uIPjflHVkFyKUfusZUjI1I5EhOyt1OOaoXIvDULkli7R0ktvxVJnfhkbyA8Je/LbtXtDdwxGD9YDCaX/5OaKlw1D6e1uHZaB6Ilc43FINsuR+bhNPPaacbZaeu+yNwl7/Bkvstze88Tw81hSDPLkdZOOZInatviWoys0uI2idtRbMQClCUzGZFiI8Zzjcif10hzOTJHi5xf17XwbTlWOcpTjnD78AXjexNH7/+7c6cvfO3w2YtVcQabY/6RoxBtoxy1e7aalLh09lo0Lc5eO/kdv5b80J69t8ehmv7w5ERQzz0ZSRXe6HwxMt/HPvoUSxWq4bEjtdGg9sqROc/ILEfGYo+RuW96hyYe7vJwhiFuDvZy1M7Zaq3iKCGtypH1PsbCkrUiI3+eawpm0lac72/fTtdDa01f/xpTP6xGOcJtxjcSDyaW7v/nc6cvvHzYGj2yFyRHIbIXo0ZBai5H4lR+93IkF6CN0ihHYvSoVI1bh9dSJ/9HQEvevWfv7l4zx9Mb8AfiB382lMp9S5POThN/Fs6ys9U4y5H4RRuZWKqOxBrlyCxIzlJkL0biNUOquKjs/Pf9kbmPdvcOc+kX3DTq5Si9QTmyyoT8mKPASKmVF/O1jUITy+QrsXSxEk+vrI9mTl0dza5eHc2uvCMSz5bfiWdLV+OZRkYzpXeMZEXK78QzRq6KjGZWxOe/E8+svD2aKv8wliqu73Q5ihq3lCPcxtTk0tzs6vln589ceMs8vb/13CO3UaOdKkfOiH/IjWuvvR1JnfyNgJZM79m7O1db7vYG9gRGD94d1Jf/UE0X1q31jMTyBkYx6mA5aoqYlD113JyUbSs+cilqKkfivnHttMPv+JX53+4bnlzq8njvlPcJuFGG1ERvPFt8wihHxoiMsxxZZcetDLm9zu25ejnKFKrRdL4aTRXfiqVXfj+WXnkynln9ldHs6pMi8ezKJ2PZ8pPRTEnkV2NGyr8Wz67UsipufzWeWflkPLMiPu9XDsyc+sRoZuVjo6nyv4nphW9GU4VKY0RqB8uRcSo/5Qi3IV8w7plaes+Pzp1Z+9LiuYsVcdaZsTikVZAcxUguR+IUfvvZarZFIDtZjrLiVlx9viAmZ383nDz+c72BcFDen91gIDyZHtGXPxVO5X8glv1vGjHqWDFyLgUg/ozVhJiULRaDbB45MkqQVYrkUSPz7LQ/6Rue/Ikuj7dP3h/gRhLrHMnlSC43ctFxK0Buj7mVI3GrpfJVTc+9qurLHxqOZaO+0ETYH56IWPGFxyO+0LgyEBpXfUYmVF94QjMzKe4rvtBExPi80EQoEJ4IBkITw8EDhxeVRO7zml6oGL8bpLPUjO20z6naZhzlSKcc4TbkC8aHE8cf+MW5sxf+atE+Obt++EyONHLUdLaaVY4eqpWjrc83skeUAWOCtlGOzPtqKlcN6ye+FNCSD+zZ690n78+trLvXPxyIz3w4pOe+03R2WseKkYh7ORIjU1E9Vw2NiknZtXJUHx2yytGcsZZR43CamGc0/6ovcuifdvcOa/L+ADeasQhktrBhOZJjL0Jy5Nc2fZ6tHEX1/PdU/eT7e/3hjq3z5QtNJSOJ3Oc0XUwkby5H5jXUGqVGLjxbiVyOVL345b5ByhFuQ6q+lJ49/fB/mD974Up9cva5R2vlZ4NyZBQjZzma61A5MtM8OTueLVTV1PLViH7i3wc0PbtbDq91ewOewfjsj4YSJ76opsThNKsYdWqekRy5HNUmZR84Ks0rssrRXNOo0X7tcDUQmX/bFzn0bO/Q+MKdnt475H0CbjSzHDlHjuRi01RyXCK/xi1WORL/gYumCq9G9fx5byDSsfmRvtC0WY5S+drXsx9S26FypNfL0aq8PcCu5wuOdk0fu//+ubMX/ufi3ebhtcbIkFyObAVp03LUmcNq5giS9bH4yyvWPjrxclg/8Y96A5FdcXhtIDw5G0yefEbR8281nZ3W0VEje9zmHYmVso81DqcZo0TyqJFZlmpnp33FOzTxY3d6vL3y/gA3g1blyF54zI8bc5E2KkatHncpR69HU8U1b0Dp2Oh2rRx9VtPzzfOMbNvfOKzWzvXU3ONSjr5COcJtyxccDSSOP/Dz82fXvt3+4TWzEMmn8s/Z5hyJQnPt5ah2P9s4e804vJZa/nIglnrvnr3eHnl/biUerz8cOHDwl8Kp3F+Ls9PMEaOdHDUScSlHWbFS9vFqMCbKka0M2e6L0aNBdU4Uo5f9kUP/pLt3OCLvD3CzqJWjx7V0/k1RjsQ6Q3K5Me83T9R2jMi0EbOY7GA5CicSkencZzQ9X2kuR7b7OzFylKIc4Tan6kvJ2dXz/3b+zNrlprPXWhakRimyp1GOzFJzreWoKbX5R/FssapmCutKJvf0UCw169l3a17ctNsb6AkcmH1/KLX8dS1TrIjSIvaxs2enybHNO2p6/8ZK2SNWIapPwq5NzNbmq4HI3N8ElLlP9Q1PznR5dsdhTexOg2qiJ5YtPrZROTLjXo7kArRhrHJknK0mylGh8+UosfxcczmSClLLctT+SJKzHJW+2jeonZK3B7ht+ILxO6eOvufsodMP/9eFcxfWm85ecylGLcvR6oPVqbt2sBzVRpCiGeP0/lfV9PLPDUVTwb5hrat/f3RP//6oxxbx8VYj3seK9FysVTyNRD39w9E9fXL2Rz19w2a8Q9oe75DWPTR6MB/UTzyvpAtvixEjY9929HCaFZdJ2dlyVUuISdmL1RHNVo7qiz2KUaP5qj9y6At9wxP3dnXv7vWmcOtrXY7M20a5aVWOtlCQaoVCrMkWTRVe0/SdKke5dbFtYqVtRzmqzz2Ss4VyZNsXUY60VPFr/YMq5Qi3N99I3De9dP8/PHRm7VvG4TX7HCP5sFptPpJbOZq+6756oeloOTLOXmtce038RVZT+T/S0vl/pmVzj0SzuUdi2YKVi7EZK8ULcZFZI2uxGXtKD4vEm1J8OD7bnJiRkpmZkvi8pkTrKa5Fs8WHteacN29La2qmuKakC+fVdPERJZV7NqLnXo+KX3bZVWPhy50dNbLSKEf2xSCjet64jIhRjqxRo9rZa0YxUub+yjs08TNdnt798s8OcLNppxw5D6vZi8ZWCpL5nuY6R2Y56vV3shxNW+WoIr5Ooxw5S1KjIIlSZI+zDDnSVI7E2XclUY5Oy9sD3HbUxNHx2dXzT86fXntj8ewFowA51z9qXgvJtRwZF5HdgXJUuy9W0o4Z118riVVjr0Szhe9Hs4XX49nia/Fs6dVYtmgkPlP8XiwrUvpebMbIK86UX47NlESsx1rfz9bzSi0vR7OlV2x5WTPz3aZkzFtVJFP6azVTekVLF65omcJ6PFuuiNLXVIx2rBw1n85vlCPxS1WUo9plRIzDatH5arB22v6wdrjqCx+6MhA5+GvdvcNJ+WcGuBnVytFHNipHVrFp3LqVo81LkvWeRjnSC69pyY6Xo2QksfyZ1uWoxXbby1G9NG2QejkqWeXo6/2DGuUI8I3E3z115L7SoVPnf2/hzNrVu86JgmQrR9Zkbet+fRFIl3I02+lyZJugLU4/N0pE0ZiDJP6Rt0ZBrPuNmMPFZkrVqCgCIuJ+U+yv207k95Nifd1ssaqJbcoWK7FsqWKWIqkY7Ug5shej5nJk/DmJSwaML1WDRjGarwaNM9eMa6dVfJFDf+AdGl/t8ng98s8McDPavBw5y9CGRcOlFNnLkbgVX2cnypE/PJ1URDlKbVyOnIXOJRuMIonfU7F02XidQjkCmvmC8b7ppff81KEza//n8NkLRulpLkhbKUfWYbDOp6lE2EeVbHF77MbHXHhRxNw+qRTtWEFqLkf1Qil+IYr74hfi5PFqKHbYKEhi9GhIma8GlLlv9Q2N/2SXp3dQ/lkBblbN5chaG6hRjtyKhdtj7RQk6z1FOYqliq9rycKFXr/SsTNp/eGppJJc/mxHypFIq4JkPEc5AlpSkkujs6vnPz5/eu31xbPm2WtHzz1qHmK7CcpRo2TU/tF3ec3NEmc5kuNSina8HJmPyaNt2vTJaji+aJSj/ep8NRCeeyOgHPrlvd7hcflnBLiZmeWoIJUjK85y5BZHqTBiL0bmx9Z7GiNHZjm62PFy1MbIkX27W2//BvOQ7OUoRTkCHMThtckj9508eOr8Cwtn1t4Wp/eLYmSWo0YxuhHlyL1UWM/XLjvi8nk3Is4i5JbGPuxsORJpLkdWxKFHcRtN5qrh0buMUaNhZWF9MDL/fP/w5Imubm+X/DMC3MwCohxlCh/RUmY5Gk2XbQVCPsurUSjcHnePezmKpYrf15KFR3a6HG1UkKx9cW6zLbW5Rc1Fz7UcnZG3B7it+UbiPVNL7zl/6Mza/xKjR0ftk7NbnNJvlqN7O1aO7CXC7TF7oWgUo40KUjuvcXut/WP5de5x20bntsvPy2VmJ+IsR9bjUT1fCR04Uh1S5qqDyvw3+4cnH+zyeAfknw3gZucoR00FQj5lv1Eo3B7fOI5y9IaWLHyg1690bPX42mG1z0S3UI62nXo5Kla1VPkblCPAhW8kriSOPfAv5s9ceNUYPbrbHD1qjCBdNC4zYpajD1TnO1iOnAWiVaTRFlusQiM/vlncPq/dxzaOvO1y5MKyszEPq5mjRvFMuSIWmRsZXar4w3Ov+yOHHuv2DsfknwngVmArR29spxzJz7WOazl6tNPlSN1COWp/213SVI5KlCOgFU0/duTQ6vnPHT6z9jdHbAXJuL6aKEe29Y+ay9GKUY62e8aaKAuti5LzH3ojVgmp3W+7vEjv0fR5bo/VUn/M/rUdkbfdLS77skOx5hmZ982z/cQv02i6VFGT+cr+0aWrAXXhc337J490dXvvlH8egFtBQJFHjuyH1dqPXB6cjznK0ZtasvCTO1WORm3laLOC1CryPlGOgG3wBUe7p4/e9+Pzp9e+ak7ONucfiTJkjBrdXVsw8m6rHFlzjrZfjtyKUVNJcplcbEQqNG0nW6qOWpFKkP0xt2zt68mlSN4fZ5npdKwz08wRo8b/oKPpYiWSyFVGxo5+bSA4/eNd3d4++WcBuFW4liPxd8ClLGwn9nJk3RrlSC9e3rlylG+Uo9rvq8Y+uZU/8Zjb4/I+NBKnHAHt8wXjweSxB35p/vSFl63FIa25R1Y5EiNKCx0aOXKUB0eRcP6jf02xlxz5sU5ls/eUt2mHUj+F31aMYuliRdELldDUyZdHxpc+vG8gqMg/A8CtxF6OxJlY160cpYqXNb3wU16/0rGLPvoj0wk1mauVo9qoUf0/dNZ+WSXIXoY2L0eOjylHwNaoiaOzM+UHn5o7df6KuTiktFr23Y9UF1YfqiY6UI6cBUkUiB0sR52OXHzs5ajV826R3/caY/wStw6n2X6RilGj8HTureDk8U/5ldTMnr39XFQWtzRRjqKZwmOOcmSPS2FoN3I5sh1Wuxzd0XJUrB6QypExglQvQvZCtHE5ktNcjsSyBJQjYFMDI7Guibvu+ZGDKw998fCZC+vi8FrjdH7zvlmO5MNq25uU7ShF1sfyL7ibMXIhku+3E/k9O5BGOar/MqyIVXHFqFF4evm/B9T0vXv29XdsZV/gRnErR/XDUFZcCsJW4laO4qniD6J64YM7UI6es0aODtinAdjLkfiPo6MkyYWpdaxyJO7XFoGkHAHtGBiJDU8fue/Dc6sPf2fx7Jpxtpp1Or9Zjh7scDmS4/wH/4Zno/Lj9liryO/bgdgnXzfSGDUS5UgMn4enc38Rmjrx93t8YS4qi12hdlitXo4O2MpRU0lyKQntxipH5se1cpQu/iDW+XI03VyOykbMYtTIxuXIuf1y7OVIFeVIL32jP0A5AtqiTB9JZYvv/425U+cvL54TlxepnbEmytEpUY7kw2qdKkc7VyK2HXmb5I/lx63n5GLk9jk7EGuxx3imVDFGjdKlaihRuBycWv5EQM1M79nXL3+7gVvSYKMcXbaXo/pIiz0uRaHdNMqRODxdEPP3dqwcxaRytLWC5Nx2OS7l6Ov9AZUVsoF2DOyP3TmxePe5mZWH/nDhzNq6WZDM+UfmyFFnypGzKDn/sb/p0qroyI9f51Jkpr6ekVgdVxSjipIqrIcSJ38/oGXKnn39XFQWu8agktjnNnIkx/n3xBaXAuFIbSRWnNQQTRcqsVTny1EgMj2t6cvPxcSp/FmrHFmH11oUpKaS5LLdrWKVI7FCtl78eh/lCGjfwEjMN3nkvp+ZPXX+Wwtn16qLYs7ROeuwmlmODohyVCtIo9dQkByjR/IvsBsVeRTIfl/eTvvj9Wxlf1wmk24ntV+AYtRI1YvVSDL3fwejmQ949vUH5O8xcCszR47yj2mp3PbLke3vjDO1EaOmclSs7MhhtfD0tJY0y9GBbLE6VitGrcqRHLMoydvvHnGZFTE/yxw5Kn61L6CekrcHwAZCU3eNp4rv+8Ts6vnXF86sGYfXFlbs5UiskG2tkr29cmQvRo7H5F9iOxlHselw5K9n/9+fa+TXt4jxy1t+31JVTMKOJApvhKZP/Ksef3hM/t4Ct7ohJdETzxQe19L5y2JEZzRdMkZd5Dj+zrSKo0hY5Ujcr43GZkQ5Koly9NMdLkdTohzFr6UcbbgvtnIkSqRRjoqiHH2lL6CuytsDYAN9w9F3jS6cW06X3v/8wdWHf3j47Fr18OqD1eTifUaJaS5HzuLTbuRyVH9M/gu/05GLjFxu5MLT8jlpJEx+X0cRahWXbdww5ueIeQWqXnwnPJ37jwEtc9yzr5+LymLXMctR8fGoKEep/Ho8XVwfzVxjQbKn6eK1ohwV12OZYmU0Xf5BTC92uBxNTYrDavF0rnogU6yIctQoSM4yJO+fI01lqPlyJOZZfVY5Kn2ln3IEbF3//mjv2OI95zPlh/5k7vRadX71fZXE4r1mKaqPHl1bOXLLtZWEbUYuMXKxafWx/Jw0ItYURwHaLNb2bPTnYFvTKCvmEohRo9yfDmrZ93n29TMDG7vSkJrYF8+UHo+lCpdjKWPkaF0cWnMvE5ukNprSvPhi4xIeo5lyJZ4uGyc5jKZWrsT10ge9gc6VI194alJMyI6n8mY5ypQq49lydawW+wTtVhO1m/fFvu1N+1EdzaxUD2RXqmqyVI3q5S/3D2or8vYAaEP/cFQZO3z3EzMrD71ysPz3KonFeyrmiFGjHG13IchWcS8ScinoYJrKzWaRRoTaKUX2fXLdt1axttF9/21npxm3WrpUDScLr4USyx/p8Ye5qCx2rUE1sW80W3pcnD0WTxcrBzKlylitHDlSO3HEHkep2CCiTIxmV6oxUS7SK2/FU6UP9gU6d/mQgfDUZCQhzlYTI0eF9QOZ4vp4tlwZn1mpjrmkvh9Zt7jsf1OhEq9ZrarJcjWWWv3jgaEo5QjYrpHx+YXk8t/5zWz+J65ML95jK0VmMdqRcuQoEc5y0JE4Ss5GsZedjZ5rI44i1CpiOzf4M6iNGIl5RmG98HYwsfxcIJpd9PT0c1FZ7FoBdXpfNJv/qJLKXYkkc+taMvdONFWoxIzT7W3JiIiFHKWkzXWLzNPzjVP0HRHXbDNTEgsmVjVjEnPuLU3P/bQ3EOlYOeoPTU6MTJ94LpI4UVGTJ65q+vJVUfjMQ2JiZLg59n3YSox9SZWqMb0k1j4T+/Ol/iG1LG8PgDZ5B1WPNrPyI9PH/tYXJg/fs26Vo7GZVeOMNXFaf2NS9rUdZnOUD3uBkYtBJ9Ky4Gz0nPW8/NgW4ihB7UTadutU3qx5raRQMvflQDTzY559/R0b8gduRgF1ulvNLK9F9OXPhhPLn48klj+vJHO/q+jLzyv6SZEXlNTJF5XU8iUlvXxJTS+/pKZzL6mp3EtqOv+SmrIiHjPuX1L13CVVz79Ui7h/SUnlLyl64UUlmX9BSSy/qCSO/Y6SOPHeXn+kR96m7RqITCrB5PFfCCVO/FZ4+vhnleSJ34qmcr8TTeV+N5rKPS+ipZZf0NLLL2qpnC35S1vIi6qef1HTCy9E9cILkcTJS5q+/Mm+QWVe3h4AW9AbiASUVO4XDsyd+8vR2VVjtEiUI2OY1yhI1ghSp8qRiEuZ6WQcBaidyNu4jThKz2Zx2XZjfsGKcasZo0b574aSJ3++xx8Oy987YLfp8e2/wx8Zj/nC4wu+0PhhM2N3+UJjR3yhAyJHfaGxJV947JgvPHa8kfETLhGPu+WYkdD4ki80ftQv3i94YMkXHNM8PQMdG5nd59u/dyA8Nj4QGjvkMzPvD48f9ofHFv3hsbv84bEj/vDY0VqWajnmD49vJUu1HA2EJ476wxPHA+GJue5eH8t8ANcqoKWzsdkzn47PrF4RRcYcPaqtd2StfXSNI0j18uBaIsxS0LowbCObFp7Nnt9iHPvUTqztle+Xq9FMuRrRi2+Fk7l/NxibyXh6BrioLAAA10uPL9QVnFx6IJpZ+WI8W6qI0SJzkqB5eM0qR/VJjy7lp50Y//A3lYlGGXAWhmtMp0eFNotjPzaLyzbXnouJU3LFmkZ6/r8NRWfOeXoG9srfMwAAsMN6BoKDwYkj/1jLlL8tCoUYMRqbtUaQGqNH11KOjILkFqsw1D6uv7ZlkXApGvJ73ojY9sG5jXKs/bDtlzHPqFxV06VqJFX89mBs5kOefQPD8vcKAABcJ/5IYkrNlH89mim/OTpTrI4ZI0i20aP6KFLnz2RzpuQaUdzs9xsfy5/XeC9RVuz3rcivkbPRc23FUYikMlRfe6W2jkntcFpYL1wOJXP/ujcQmZK/RwAA4DraNzByR3DiSFnLlH8vlildNSZnz4rJ2VJBqs1Lai5J1zaidKvEXppapek1ruWocb9ejmrrraip8npYz780GJspeHoG9sjfIwAAcJ31DIz0hiaOXIxlVv7MmJhtHV5rGj2yLjHSiFwQbue4FajWI0dmMRLPicUeFb3wv4djM2uengG//L0BAAA3SM/AiBqePPLL8Wz5tQMzpXo5MguS7RIjTReq3Ymi5Dys5n4IrdVjzYfXbkiM8mOOEMnFSBQicdq+iFjETUnmX1P03GPeQCQuf08AAMANNqgkjsUyxefjWePwWkVMzB4Xh9jk+Ue2idrOOItTZ8vTLRCXyxbUR5GM9YzMw2lKsnBVSeY+MxybWfT0DNwhfz8AAMAN1uMb2RueXHxYy5T+LJYtVUQJMuYfiYUi62mMKLXKxuWpEXPOUiPy826vcRSRejZ7rhNp//3iRqSJ2uIx43DaSu1wWv6rw7GZv+3pGWAVbAAAblY9A/vV4MTix9RM8fWouP5PtlSxEssWjRgfz4jHxP1iJT5Tu3WJ9TmxjEhBZD2WLYpUohkrBSPma5pjPWdG/rgp6/VkC5VYtlARt+Z94/OM58xtMR/bUsTXrr2XuEhs4znx5yIuHFuqxjKNW3F9NHu0dKkSTZfXtXR5XU0VK0oq/4qi5z/cG1Ai8vcAAADcZAbVxJKaLTyhZvKf1jL5T0cz+ae0TO5pNbP8tJZeflrcj2byIk9Fs/mno9n8U8Z922NaRiRnRBVJ22I+9oyabpW8lNrjmfzTatqWTP5pxbz/lJncU2om/5QiXleL7f5Tivl8/blaxPtuEvPrKxkR47FnG88VnlGzhWfVjJS0SFHkN43bVPEZVS89rejFZyJ6/jlFzz8xHJ+dZRVsAABuAT2+kT1+ZSLsUyamfMr4lC8yPu2LjCWbM55oEfGcFd12u8VMtJPkNUZ+P1sa2zJgJmWL/WPz+bCcCd0XnkhZ8YcndTPGx1lfaDLq6fGxCjYAAAAAAAAAAAAAAAAAAAAAAAAAAAAAAAAAAAAAAAAAAAAAAAAAAAAAAAAAAAAAAAAAAAAAAAAAAAAAAAAAAAAAAAAAAAAAAAAAAAAAAAAAAAAAAAAAAAAAAAAAAAAAAAAAAAAAAAAAAAAAAAAAAAAAAAAAAAAAAAAAAAAAAAAAAAAAAAAAAAAAAAAAAAAAAAAAAAAAAAAAAAAAAAAAAAAAAAAAAAAAAAAAAAAAAAAAAAAAAAAAAAAAAAAAAAAAAAAAAAAAAAAAAAAAAAAAAAAAAAAAAAAAAAAAAAAAAAAAAAAAAAAAAAAAAAAAAAAAAAAAAAAAAAAAAAAAAAAAAAAAAAAAAAAAAAAAAAAAAAAAAAAAAAAAAAAAAAAAAAAAAAAAAAAAAAAAAAAAAAAAAAAAAAAAAAAAAAAAAAAAAAAAAAAAAAAAAAAAAAAAAAAAAAAAAAAAAAAAAAAAAAAAAAAAAAAAAAAAAAAAAAAAAAAAAAAAAAAAAAAAAAAAAAAAAAAAAAAAAAAAAAAAAAAAAAAAAAAAAAAAAAAAAAAAAAAAAAAAAAAAAAAAAAAAAAAAAAAAAAAAAAAAAAAAAAAAAAAAAAAAAAAAAAAAAAAAAAAAAAAAAAAAAAAAAAAAAAAAAAAAAAAAAAAAAAAAAAAAAAAAAAAAAAAAAAAAAAAAAAAAAAAAAAAAAAAAAAAAAAAAAAAAAAAAAAAAAAAAAAAAAAAAAAAAAAAAAAAAAAAAAAAAAAAAAAAAAAAAAAAAAAAAAAAAAAAAAAAAAAAAAAAAAAAAAAAAAAAAAAAAAAAAAAAAAAAAAAAAAAAAAAAAAAAAAAAAAAAAAAAAAAAAAAAAAAAAAAAAAAAAAAAAAAAAAAAAAAAAAAAAAAAAAAAAAAAAAAAAAAAAAAAAAAAAAAAAAAAAAAAAAAAAAAAAAAAAAAAAAAAAAAAAAAAAAAAAAAAAAAAAAAAAAAAAAAAAAAAAAAAAAAAAAAAAAAAAAADwrne96/8DGAWJ4G1VCSMAAAAASUVORK5CYII=;" vertex="1" parent="1">
          <mxGeometry x="40" y="40" width="183" height="183" as="geometry" />
        </mxCell>
      </root>
    </mxGraphModel>
  </diagram>
</mxfile>
